<svg id="Layer_1" data-name="Layer 1" xmlns="http://www.w3.org/2000/svg" xmlns:xlink="http://www.w3.org/1999/xlink" viewBox="0 0 565.09 304.08"><defs><style>.cls-1{fill:none;}.cls-2{isolation:isolate;}.cls-3{clip-path:url(#clip-path);}.cls-4{fill:#858500;}.cls-5{clip-path:url(#clip-path-2);}.cls-6{fill:#fcfc00;}.cls-7{clip-path:url(#clip-path-3);}.cls-8{fill:#008200;}.cls-9{clip-path:url(#clip-path-4);}.cls-10{fill:#008500;}.cls-11{fill:#00fc00;}.cls-12{fill:#008100;}.cls-13{clip-path:url(#clip-path-5);}.cls-14{clip-path:url(#clip-path-6);}.cls-15{clip-path:url(#clip-path-7);}.cls-16{clip-path:url(#clip-path-8);}.cls-17{clip-path:url(#clip-path-9);}.cls-18{fill:#008300;}.cls-19{clip-path:url(#clip-path-10);}.cls-20{fill:#008400;}.cls-21{clip-path:url(#clip-path-11);}.cls-22{clip-path:url(#clip-path-12);}.cls-23{clip-path:url(#clip-path-13);}.cls-24{clip-path:url(#clip-path-14);}.cls-25{clip-path:url(#clip-path-15);}.cls-26{clip-path:url(#clip-path-16);}.cls-27{clip-path:url(#clip-path-17);}.cls-28{clip-path:url(#clip-path-18);}.cls-29{fill:#828200;}.cls-30{clip-path:url(#clip-path-19);}.cls-31{clip-path:url(#clip-path-20);}.cls-32{clip-path:url(#clip-path-21);}.cls-33{clip-path:url(#clip-path-22);}.cls-34{fill:#818100;}.cls-35{clip-path:url(#clip-path-23);}.cls-36{clip-path:url(#clip-path-24);}.cls-37{clip-path:url(#clip-path-25);}.cls-38{clip-path:url(#clip-path-26);}.cls-39{clip-path:url(#clip-path-27);}.cls-40{clip-path:url(#clip-path-28);}.cls-41{clip-path:url(#clip-path-29);}.cls-42{clip-path:url(#clip-path-30);}.cls-43{clip-path:url(#clip-path-31);}.cls-44{fill:#838300;}.cls-45{clip-path:url(#clip-path-32);}.cls-46{clip-path:url(#clip-path-33);}.cls-47{clip-path:url(#clip-path-34);}.cls-48{clip-path:url(#clip-path-35);}.cls-49{clip-path:url(#clip-path-36);}.cls-50{clip-path:url(#clip-path-37);}.cls-51{clip-path:url(#clip-path-38);}.cls-52{clip-path:url(#clip-path-39);}.cls-53{clip-path:url(#clip-path-40);}.cls-54{clip-path:url(#clip-path-41);}.cls-55{clip-path:url(#clip-path-42);}.cls-56{clip-path:url(#clip-path-43);}.cls-57{clip-path:url(#clip-path-44);}.cls-58{clip-path:url(#clip-path-45);}.cls-59{clip-path:url(#clip-path-46);}.cls-60{clip-path:url(#clip-path-47);}.cls-61{clip-path:url(#clip-path-48);}.cls-62{clip-path:url(#clip-path-49);}.cls-63{fill:#848400;}.cls-64{clip-path:url(#clip-path-50);}.cls-65{clip-path:url(#clip-path-51);}.cls-66{clip-path:url(#clip-path-52);}.cls-67{clip-path:url(#clip-path-53);}.cls-68{clip-path:url(#clip-path-54);}.cls-69{clip-path:url(#clip-path-55);}.cls-70{clip-path:url(#clip-path-56);}.cls-71{clip-path:url(#clip-path-57);}.cls-72{clip-path:url(#clip-path-58);}.cls-73{clip-path:url(#clip-path-59);}.cls-74{clip-path:url(#clip-path-60);}.cls-75{clip-path:url(#clip-path-61);}.cls-76{clip-path:url(#clip-path-62);}.cls-77{clip-path:url(#clip-path-63);}.cls-78{clip-path:url(#clip-path-64);}.cls-79{clip-path:url(#clip-path-65);}.cls-80{clip-path:url(#clip-path-66);}.cls-81{clip-path:url(#clip-path-67);}.cls-82{clip-path:url(#clip-path-68);}.cls-83{clip-path:url(#clip-path-69);}.cls-84{clip-path:url(#clip-path-70);}.cls-85{clip-path:url(#clip-path-71);}.cls-86{clip-path:url(#clip-path-72);}.cls-87{clip-path:url(#clip-path-73);}.cls-88{clip-path:url(#clip-path-74);}.cls-89{clip-path:url(#clip-path-75);}.cls-90{clip-path:url(#clip-path-76);}.cls-91{clip-path:url(#clip-path-77);}.cls-92{clip-path:url(#clip-path-78);}.cls-93{clip-path:url(#clip-path-79);}.cls-94{clip-path:url(#clip-path-80);}.cls-95{clip-path:url(#clip-path-81);}.cls-96{clip-path:url(#clip-path-82);}</style><clipPath id="clip-path" transform="translate(-232.05 -80.49)"><path class="cls-1" d="M628.86,225.74l-21.15,15.4a2.81,2.81,0,0,1-2.68.27L626.18,226A2.81,2.81,0,0,0,628.86,225.74Z"/></clipPath><clipPath id="clip-path-2" transform="translate(-232.05 -80.49)"><path class="cls-1" d="M603.78,234.41,624.93,219a3.41,3.41,0,0,0-1.28,2.24,4.14,4.14,0,0,0,2.53,4.76L605,241.41a4.14,4.14,0,0,1-2.53-4.76A3.47,3.47,0,0,1,603.78,234.41Z"/></clipPath><clipPath id="clip-path-3" transform="translate(-232.05 -80.49)"><path class="cls-1" d="M625,246.42l-21.15,15.39a2.81,2.81,0,0,1-2.68.28,4.14,4.14,0,0,1-2.53-4.76,3.46,3.46,0,0,1,1.29-2.25l21.14-15.4a3.49,3.49,0,0,0-1.28,2.25,4.14,4.14,0,0,0,2.53,4.76A2.84,2.84,0,0,0,625,246.42Z"/></clipPath><clipPath id="clip-path-4" transform="translate(-232.05 -80.49)"><path class="cls-1" d="M781,367.87l-21.14,15.4c4.93-4.44,9.33-11,11.28-21.54a46.23,46.23,0,0,0-2.44-26.2l21.15-15.4a46.31,46.31,0,0,1,2.44,26.2C790.38,356.87,786,363.43,781,367.87Z"/></clipPath><clipPath id="clip-path-5" transform="translate(-232.05 -80.49)"><path class="cls-1" d="M776.7,331.27l-21.14,15.4A77.88,77.88,0,0,0,761.31,334l21.15-15.39A78.16,78.16,0,0,1,776.7,331.27Z"/></clipPath><clipPath id="clip-path-6" transform="translate(-232.05 -80.49)"><path class="cls-1" d="M768.66,328.44l-21.14,15.4a85.77,85.77,0,0,0,5.75-12.63l21.15-15.4A84.75,84.75,0,0,1,768.66,328.44Z"/></clipPath><clipPath id="clip-path-7" transform="translate(-232.05 -80.49)"><path class="cls-1" d="M755.45,344.9,734.3,360.3a11.44,11.44,0,0,0,4.05-7.34c.89-4.8-.21-11.68-5.86-13.67a6.29,6.29,0,0,0-6.1.72l21.14-15.4a6.31,6.31,0,0,1,6.11-.72c5.65,2,6.75,8.87,5.86,13.68C758.87,340.94,757.39,343.48,755.45,344.9Z"/></clipPath><clipPath id="clip-path-8" transform="translate(-232.05 -80.49)"><path class="cls-1" d="M759.29,348.38l-21.15,15.4A11.53,11.53,0,0,1,727.39,365c-7.12-2.51-11.57-10.07-9.91-19,.81-4.38,2.69-7.49,5.2-9.32l21.15-15.4c-2.51,1.83-4.39,4.94-5.2,9.32-1.66,9,2.79,16.52,9.9,19A11.55,11.55,0,0,0,759.29,348.38Z"/></clipPath><clipPath id="clip-path-9" transform="translate(-232.05 -80.49)"><path class="cls-1" d="M693.42,319.68l21.15-15.4c3.18-2.31,7.45-2.7,12.31-1a21.88,21.88,0,0,1,7.78,4.56l-21.15,15.4a21.79,21.79,0,0,0-7.78-4.56C700.87,317,696.6,317.37,693.42,319.68Z"/></clipPath><clipPath id="clip-path-10" transform="translate(-232.05 -80.49)"><path class="cls-1" d="M689.91,315.87l21.15-15.4c-3.48,2.53-5.89,6.66-6.9,12a24.46,24.46,0,0,0,2.38,16.5c2.91,4.95,7.2,8.09,12.74,10a32.66,32.66,0,0,0,11.65,1.8l-21.14,15.4a32.71,32.71,0,0,1-11.66-1.8c-5.54-1.95-9.83-5.09-12.74-10a24.46,24.46,0,0,1-2.38-16.5C684,322.53,686.44,318.4,689.91,315.87Z"/></clipPath><clipPath id="clip-path-11" transform="translate(-232.05 -80.49)"><path class="cls-1" d="M669.21,301.07l-21.15,15.4c.44-2.35.62-6.78-4.76-8.67a12.17,12.17,0,0,0-7.25-.31l21.15-15.4a12.13,12.13,0,0,1,7.24.31C669.82,294.29,669.64,298.72,669.21,301.07Z"/></clipPath><clipPath id="clip-path-12" transform="translate(-232.05 -80.49)"><path class="cls-1" d="M665.4,313.6,644.25,329a5.9,5.9,0,0,0,1.66-1.87,5.08,5.08,0,0,0,.57-1.55l21.15-15.4a5.35,5.35,0,0,1-.57,1.55A6.15,6.15,0,0,1,665.4,313.6Z"/></clipPath><clipPath id="clip-path-13" transform="translate(-232.05 -80.49)"><path class="cls-1" d="M636.85,320,658,304.62c2.26-1.65,6.18-.91,9.8.37l.74.27-21.14,15.4-.75-.27C643,319.11,639.11,318.37,636.85,320Z"/></clipPath><clipPath id="clip-path-14" transform="translate(-232.05 -80.49)"><path class="cls-1" d="M666.11,316.69,645,332.09a8.8,8.8,0,0,1-8.24.91,9.72,9.72,0,0,1-6.54-11,7.91,7.91,0,0,1,3-5.21l21.14-15.4a8,8,0,0,0-3,5.21,9.72,9.72,0,0,0,6.54,11A8.82,8.82,0,0,0,666.11,316.69Z"/></clipPath><clipPath id="clip-path-15" transform="translate(-232.05 -80.49)"><path class="cls-1" d="M637.24,308l-21.15,15.4c-1.08-2-1.1-4.69-.48-8l21.15-15.4C636.14,303.26,636.16,306,637.24,308Z"/></clipPath><clipPath id="clip-path-16" transform="translate(-232.05 -80.49)"><path class="cls-1" d="M646.37,312.73l-21.14,15.4a11.2,11.2,0,0,1-4.37-.79,8.11,8.11,0,0,1-4.77-4L637.24,308a8.09,8.09,0,0,0,4.76,4A11.23,11.23,0,0,0,646.37,312.73Z"/></clipPath><clipPath id="clip-path-17" transform="translate(-232.05 -80.49)"><path class="cls-1" d="M632.3,271.44l-21.14,15.4a2.74,2.74,0,0,1-2.59.24l21.14-15.4A2.73,2.73,0,0,0,632.3,271.44Z"/></clipPath><clipPath id="clip-path-18" transform="translate(-232.05 -80.49)"><path class="cls-1" d="M607.39,281l21.14-15.4a3,3,0,0,0-1.11,1.89,3.72,3.72,0,0,0,2.29,4.19l-21.14,15.4a3.69,3.69,0,0,1-2.29-4.19A2.93,2.93,0,0,1,607.39,281Z"/></clipPath><clipPath id="clip-path-19" transform="translate(-232.05 -80.49)"><path class="cls-1" d="M600.77,245.94l-21.15,15.4c4.94-4.43,9.34-11,11.29-21.53a46,46,0,0,0-2.45-26.2l21.15-15.4a46.13,46.13,0,0,1,2.45,26.2C610.11,235,605.71,241.51,600.77,245.94Z"/></clipPath><clipPath id="clip-path-20" transform="translate(-232.05 -80.49)"><path class="cls-1" d="M594.85,243.85l-21.15,15.4A45.19,45.19,0,0,1,571,233c2.19-11.52,7.22-17.74,11.55-21.45l21.15-15.39c-4.34,3.7-9.37,9.92-11.56,21.44A45.18,45.18,0,0,0,594.85,243.85Z"/></clipPath><clipPath id="clip-path-21" transform="translate(-232.05 -80.49)"><path class="cls-1" d="M555.51,220.14l21.14-15.4a4.13,4.13,0,0,1,3.89-.24,12.11,12.11,0,0,1,5.08,3.54l-21.15,15.4a12,12,0,0,0-5.08-3.54A4.11,4.11,0,0,0,555.51,220.14Z"/></clipPath><clipPath id="clip-path-22" transform="translate(-232.05 -80.49)"><path class="cls-1" d="M578.83,225.46l-21.14,15.4A3.53,3.53,0,0,0,559,238.6c.46-2.46-.66-4.29-3.93-6.94-4.4-3.48-6.1-7.07-5.47-10.47a7,7,0,0,1,2.69-4.52l21.15-15.4a7,7,0,0,0-2.7,4.52c-.63,3.4,1.08,7,5.48,10.47,3.27,2.65,4.38,4.48,3.93,6.94A3.5,3.5,0,0,1,578.83,225.46Z"/></clipPath><clipPath id="clip-path-23" transform="translate(-232.05 -80.49)"><path class="cls-1" d="M582.17,229,561,244.36c-2,1.47-5,1.74-8.73.43a17.46,17.46,0,0,1-7-4.54l21.15-15.4a17.49,17.49,0,0,0,7,4.54C577.15,230.7,580.15,230.43,582.17,229Z"/></clipPath><clipPath id="clip-path-24" transform="translate(-232.05 -80.49)"><path class="cls-1" d="M534,212.56l21.15-15.4a4.11,4.11,0,0,1,3.88-.25,12,12,0,0,1,5.08,3.54l-21.15,15.4a12,12,0,0,0-5.07-3.54A4.13,4.13,0,0,0,534,212.56Z"/></clipPath><clipPath id="clip-path-25" transform="translate(-232.05 -80.49)"><path class="cls-1" d="M557.31,217.87l-21.15,15.4a3.48,3.48,0,0,0,1.32-2.25c.45-2.46-.66-4.29-3.94-6.94-4.39-3.48-6.1-7.08-5.47-10.48a7,7,0,0,1,2.7-4.51l21.14-15.4a7,7,0,0,0-2.69,4.51c-.63,3.4,1.08,7,5.47,10.48,3.28,2.65,4.39,4.48,3.93,6.94A3.43,3.43,0,0,1,557.31,217.87Z"/></clipPath><clipPath id="clip-path-26" transform="translate(-232.05 -80.49)"><path class="cls-1" d="M560.65,221.37l-21.15,15.4c-2,1.48-5,1.74-8.74.43a17.39,17.39,0,0,1-7-4.54l21.15-15.4a17.28,17.28,0,0,0,7,4.54C555.62,223.11,558.63,222.85,560.65,221.37Z"/></clipPath><clipPath id="clip-path-27" transform="translate(-232.05 -80.49)"><path class="cls-1" d="M507.3,204l21.15-15.4a5.71,5.71,0,0,1,5.53-.71c5.39,1.9,5.75,7.46,5.09,10.72L517.93,214c.65-3.26.3-8.82-5.09-10.72A5.73,5.73,0,0,0,507.3,204Z"/></clipPath><clipPath id="clip-path-28" transform="translate(-232.05 -80.49)"><path class="cls-1" d="M504.21,200.88l21.15-15.4c-2.73,2-4.67,5.44-5.48,9.81-1.58,8.55,2.19,16,10.29,18.85a20.42,20.42,0,0,0,9.08,1.33l-21.15,15.4a20.44,20.44,0,0,1-9.08-1.33c-8.1-2.86-11.87-10.3-10.28-18.85C499.55,206.32,501.48,202.86,504.21,200.88Z"/></clipPath><clipPath id="clip-path-29" transform="translate(-232.05 -80.49)"><path class="cls-1" d="M478.57,194.53l21.15-15.4a5.78,5.78,0,0,1,5.46-.75c4.51,1.59,5.38,6,4.54,10.52l-21.15,15.4c.85-4.57,0-8.93-4.54-10.52A5.78,5.78,0,0,0,478.57,194.53Z"/></clipPath><clipPath id="clip-path-30" transform="translate(-232.05 -80.49)"><path class="cls-1" d="M478.12,191l21.15-15.4a7.47,7.47,0,0,0-1.41,1.33l-21.15,15.4A7.78,7.78,0,0,1,478.12,191Z"/></clipPath><clipPath id="clip-path-31" transform="translate(-232.05 -80.49)"><path class="cls-1" d="M492.91,178.36l-21.15,15.4c.54-2.94.93-5.36,1.21-7.76l21.14-15.4C493.84,173,493.45,175.43,492.91,178.36Z"/></clipPath><clipPath id="clip-path-32" transform="translate(-232.05 -80.49)"><path class="cls-1" d="M487.37,162l-21.15,15.4a2.73,2.73,0,0,1-2.59.24l21.15-15.4A2.74,2.74,0,0,0,487.37,162Z"/></clipPath><clipPath id="clip-path-33" transform="translate(-232.05 -80.49)"><path class="cls-1" d="M462.44,171.53l21.15-15.4a2.93,2.93,0,0,0-1.11,1.89,3.69,3.69,0,0,0,2.3,4.18l-21.15,15.4a3.71,3.71,0,0,1-2.3-4.18A3,3,0,0,1,462.44,171.53Z"/></clipPath><clipPath id="clip-path-34" transform="translate(-232.05 -80.49)"><path class="cls-1" d="M442.33,180.25l21.15-15.4a4.13,4.13,0,0,1,3.88-.24,12,12,0,0,1,5.08,3.54l-21.15,15.4a12,12,0,0,0-5.07-3.54A4.16,4.16,0,0,0,442.33,180.25Z"/></clipPath><clipPath id="clip-path-35" transform="translate(-232.05 -80.49)"><path class="cls-1" d="M465.66,185.57,444.51,201a3.48,3.48,0,0,0,1.32-2.25c.45-2.46-.66-4.29-3.94-6.94-4.39-3.48-6.1-7.08-5.47-10.48a7,7,0,0,1,2.7-4.51l21.15-15.4a7,7,0,0,0-2.7,4.52c-.63,3.39,1.08,7,5.47,10.47,3.28,2.65,4.39,4.48,3.93,6.94A3.43,3.43,0,0,1,465.66,185.57Z"/></clipPath><clipPath id="clip-path-36" transform="translate(-232.05 -80.49)"><path class="cls-1" d="M469,189.08l-21.15,15.4c-2,1.47-5,1.73-8.73.42a17.39,17.39,0,0,1-7-4.54L453.23,185a17.26,17.26,0,0,0,7,4.54C464,190.81,467,190.55,469,189.08Z"/></clipPath><clipPath id="clip-path-37" transform="translate(-232.05 -80.49)"><path class="cls-1" d="M420.81,172.67,442,157.27a4.11,4.11,0,0,1,3.88-.24,12.15,12.15,0,0,1,5.07,3.53L429.77,176a12.19,12.19,0,0,0-5.08-3.53A4.11,4.11,0,0,0,420.81,172.67Z"/></clipPath><clipPath id="clip-path-38" transform="translate(-232.05 -80.49)"><path class="cls-1" d="M444.13,178,423,193.39a3.45,3.45,0,0,0,1.31-2.26c.46-2.46-.65-4.29-3.92-6.94-4.4-3.48-6.1-7.08-5.47-10.47a7,7,0,0,1,2.69-4.52l21.15-15.4a7,7,0,0,0-2.7,4.52c-.63,3.39,1.08,7,5.48,10.47,3.27,2.65,4.38,4.48,3.92,6.94A3.53,3.53,0,0,1,444.13,178Z"/></clipPath><clipPath id="clip-path-39" transform="translate(-232.05 -80.49)"><path class="cls-1" d="M447.48,181.49l-21.15,15.4c-2,1.47-5,1.73-8.74.42a17.37,17.37,0,0,1-7-4.53l21.14-15.4a17.48,17.48,0,0,0,7,4.53C442.45,183.22,445.45,183,447.48,181.49Z"/></clipPath><clipPath id="clip-path-40" transform="translate(-232.05 -80.49)"><path class="cls-1" d="M421.69,166.43l-21.15,15.4a7.34,7.34,0,0,0,.92-2.5l21.15-15.4A7.55,7.55,0,0,1,421.69,166.43Z"/></clipPath><clipPath id="clip-path-41" transform="translate(-232.05 -80.49)"><path class="cls-1" d="M420.09,168.1l-21.15,15.4a6.48,6.48,0,0,0,1.6-1.67l21.15-15.4A6.65,6.65,0,0,1,420.09,168.1Z"/></clipPath><clipPath id="clip-path-42" transform="translate(-232.05 -80.49)"><path class="cls-1" d="M420.49,171.59,399.35,187a8.69,8.69,0,0,1-8.35,1c-4.13-1.45-8.63-5.65-6.78-15.61L405.37,157c-1.85,10,2.64,14.16,6.78,15.61A8.68,8.68,0,0,0,420.49,171.59Z"/></clipPath><clipPath id="clip-path-43" transform="translate(-232.05 -80.49)"><path class="cls-1" d="M394.4,138.54l-21.14,15.4a5.38,5.38,0,0,0,2.05-3.47c.86-4.62-2.07-7.59-6.85-9.28a20.62,20.62,0,0,0-4.25-1.13l21.15-15.4a21.29,21.29,0,0,1,4.24,1.13c4.79,1.69,7.72,4.66,6.86,9.28A5.35,5.35,0,0,1,394.4,138.54Z"/></clipPath><clipPath id="clip-path-44" transform="translate(-232.05 -80.49)"><path class="cls-1" d="M398.33,141.14l-21.14,15.4a8.62,8.62,0,0,1-4.8,1.57l21.14-15.4A8.59,8.59,0,0,0,398.33,141.14Z"/></clipPath><clipPath id="clip-path-45" transform="translate(-232.05 -80.49)"><path class="cls-1" d="M391.9,157.75l-21.15,15.4A6.33,6.33,0,0,0,373.1,169c1-5.39-2.89-9.13-8.05-10.95l21.15-15.4c5.16,1.82,9.05,5.56,8.05,10.95A6.33,6.33,0,0,1,391.9,157.75Z"/></clipPath><clipPath id="clip-path-46" transform="translate(-232.05 -80.49)"><path class="cls-1" d="M395.52,161.65l-21.15,15.4a9.33,9.33,0,0,1-.84.55l21.14-15.4C395,162,395.24,161.85,395.52,161.65Z"/></clipPath><clipPath id="clip-path-47" transform="translate(-232.05 -80.49)"><path class="cls-1" d="M394.67,162.2l-21.14,15.4c-3,1.62-7.37,1.34-13.35-.77a58.55,58.55,0,0,1-7.25-3.05l21.14-15.4a59.93,59.93,0,0,0,7.25,3.05C387.3,163.54,391.66,163.82,394.67,162.2Z"/></clipPath><clipPath id="clip-path-48" transform="translate(-232.05 -80.49)"><path class="cls-1" d="M354.76,137.28l-21.15,15.4c-.33-3.49-.57-6.56-.61-10.13l21.14-15.4C354.18,130.72,354.42,133.79,354.76,137.28Z"/></clipPath><clipPath id="clip-path-49" transform="translate(-232.05 -80.49)"><path class="cls-1" d="M359.52,148.13l-21.14,15.4a85.29,85.29,0,0,1,3.71-8.49l21.15-15.4A83.21,83.21,0,0,0,359.52,148.13Z"/></clipPath><clipPath id="clip-path-50" transform="translate(-232.05 -80.49)"><path class="cls-1" d="M342.29,142.06l-21.14,15.4c1.12-2.66,2.56-5.4,4-8.14l21.15-15.4C344.86,136.66,343.42,139.4,342.29,142.06Z"/></clipPath><clipPath id="clip-path-51" transform="translate(-232.05 -80.49)"><path class="cls-1" d="M321.92,133.72l-21.15,15.4c1.94-1.41,3.43-4,4.06-7.33.88-4.8-.22-11.68-5.88-13.68a6.28,6.28,0,0,0-6.09.72L314,113.43a6.27,6.27,0,0,1,6.09-.72c5.66,2,6.76,8.88,5.87,13.68C325.35,129.76,323.86,132.31,321.92,133.72Z"/></clipPath><clipPath id="clip-path-52" transform="translate(-232.05 -80.49)"><path class="cls-1" d="M325.77,137.2l-21.15,15.39a11.55,11.55,0,0,1-10.76,1.18c-7.12-2.51-11.58-10.07-9.92-19,.81-4.38,2.7-7.49,5.21-9.32L310.29,110c-2.5,1.83-4.39,4.94-5.2,9.32-1.66,9,2.79,16.52,9.92,19A11.58,11.58,0,0,0,325.77,137.2Z"/></clipPath><clipPath id="clip-path-53" transform="translate(-232.05 -80.49)"><path class="cls-1" d="M276.86,123.81,298,108.41a5.24,5.24,0,0,1,5-.66,7.61,7.61,0,0,1,1.59.75l-21.14,15.4a8,8,0,0,0-1.6-.75A5.24,5.24,0,0,0,276.86,123.81Z"/></clipPath><clipPath id="clip-path-54" transform="translate(-232.05 -80.49)"><path class="cls-1" d="M277,119.28l21.15-15.4a8.51,8.51,0,0,0-2.39,2.75L274.61,122A8.49,8.49,0,0,1,277,119.28Z"/></clipPath><clipPath id="clip-path-55" transform="translate(-232.05 -80.49)"><path class="cls-1" d="M290.79,108.38l-21.14,15.4c.61-3.34,1.1-6.24,1.42-8.93l21.15-15.4C291.9,102.14,291.41,105,290.79,108.38Z"/></clipPath><clipPath id="clip-path-56" transform="translate(-232.05 -80.49)"><path class="cls-1" d="M242.93,102.52l21.15-15.4c3.17-2.31,7.44-2.7,12.31-1a21.59,21.59,0,0,1,7.78,4.55L263,106.09a21.5,21.5,0,0,0-7.78-4.55C250.38,99.82,246.11,100.21,242.93,102.52Z"/></clipPath><clipPath id="clip-path-57" transform="translate(-232.05 -80.49)"><path class="cls-1" d="M239.42,98.71l21.15-15.4c-3.48,2.54-5.89,6.67-6.9,12a24.4,24.4,0,0,0,2.39,16.5c2.9,5,7.19,8.09,12.73,10a32.43,32.43,0,0,0,11.65,1.8L259.3,139a32.71,32.71,0,0,1-11.66-1.8c-5.54-1.95-9.83-5.08-12.73-10a24.4,24.4,0,0,1-2.39-16.5C233.53,105.38,235.94,101.25,239.42,98.71Z"/></clipPath><clipPath id="clip-path-58" transform="translate(-232.05 -80.49)"><path class="cls-1" d="M579.53,288.41,600.67,273a6.22,6.22,0,0,1,5.94-.74,8.9,8.9,0,0,1,5.68,7.8,8.24,8.24,0,0,1-.16,2.44L591,297.91a7.92,7.92,0,0,0,.16-2.44,8.89,8.89,0,0,0-5.67-7.8A6.19,6.19,0,0,0,579.53,288.41Z"/></clipPath><clipPath id="clip-path-59" transform="translate(-232.05 -80.49)"><path class="cls-1" d="M608.39,292.41l-21.14,15.4a6.76,6.76,0,0,0,1.9-2.18A9.08,9.08,0,0,0,590,303l21.15-15.4a9.39,9.39,0,0,1-.89,2.63A6.79,6.79,0,0,1,608.39,292.41Z"/></clipPath><clipPath id="clip-path-60" transform="translate(-232.05 -80.49)"><path class="cls-1" d="M606,304.46l-21.14,15.4c1.56-1.14,2.73-3.22,3.34-6.47L609.32,298C608.72,301.24,607.55,303.32,606,304.46Z"/></clipPath><clipPath id="clip-path-61" transform="translate(-232.05 -80.49)"><path class="cls-1" d="M609.27,308.25l-21.15,15.4a8.27,8.27,0,0,1-1,.61l21.14-15.4A7.63,7.63,0,0,0,609.27,308.25Z"/></clipPath><clipPath id="clip-path-62" transform="translate(-232.05 -80.49)"><path class="cls-1" d="M608.68,295.78l-21.15,15.4c-2,1.44-4.75,2-8.13.8-6.52-2.3-10.09-9.92-8.64-17.77.85-4.58,2.85-7.75,5.36-9.58l21.15-15.4c-2.51,1.83-4.51,5-5.36,9.58-1.45,7.85,2.11,15.47,8.64,17.77C603.93,297.77,606.71,297.22,608.68,295.78Z"/></clipPath><clipPath id="clip-path-63" transform="translate(-232.05 -80.49)"><path class="cls-1" d="M608.29,308.86l-21.14,15.4c-3,1.67-6.89,1.19-10.2,0a19.64,19.64,0,0,1-8.32-5.43l21.15-15.4a19.57,19.57,0,0,0,8.32,5.43C601.41,310.05,605.26,310.54,608.29,308.86Z"/></clipPath><clipPath id="clip-path-64" transform="translate(-232.05 -80.49)"><path class="cls-1" d="M589.52,256.37l-21.15,15.4a2.74,2.74,0,0,1-2.58.23l21.15-15.4A2.74,2.74,0,0,0,589.52,256.37Z"/></clipPath><clipPath id="clip-path-65" transform="translate(-232.05 -80.49)"><path class="cls-1" d="M564.6,265.93l21.15-15.4a2.9,2.9,0,0,0-1.11,1.88,3.69,3.69,0,0,0,2.3,4.19L565.79,272a3.7,3.7,0,0,1-2.3-4.19A2.9,2.9,0,0,1,564.6,265.93Z"/></clipPath><clipPath id="clip-path-66" transform="translate(-232.05 -80.49)"><path class="cls-1" d="M565.78,275.09l-21.15,15.4c2.79-2,4.69-5.57,5.6-10.5,1.79-9.29-2-16.93-12-20.45a26.56,26.56,0,0,0-5.65-1.43l21.15-15.4a26.36,26.36,0,0,1,5.64,1.43c10,3.52,13.8,11.16,12,20.45C570.47,269.52,568.56,273.06,565.78,275.09Z"/></clipPath><clipPath id="clip-path-67" transform="translate(-232.05 -80.49)"><path class="cls-1" d="M569.32,278.94l-21.15,15.4c-.35.25-.71.49-1.07.71-4.11,2.48-10.13,2.47-17.25,0a82.15,82.15,0,0,1-8.51-3.5l21.15-15.4a80.34,80.34,0,0,0,8.51,3.5c7.12,2.51,13.14,2.51,17.24,0A12.55,12.55,0,0,0,569.32,278.94Z"/></clipPath><clipPath id="clip-path-68" transform="translate(-232.05 -80.49)"><path class="cls-1" d="M533.78,245.66l-21.15,15.4a79.15,79.15,0,0,0,5.75-12.63L539.53,233A79.15,79.15,0,0,1,533.78,245.66Z"/></clipPath><clipPath id="clip-path-69" transform="translate(-232.05 -80.49)"><path class="cls-1" d="M525.73,242.82l-21.15,15.4a82.33,82.33,0,0,0,5.75-12.63l21.15-15.4A83.29,83.29,0,0,1,525.73,242.82Z"/></clipPath><clipPath id="clip-path-70" transform="translate(-232.05 -80.49)"><path class="cls-1" d="M512.94,273.39l-21.14,15.4a45.32,45.32,0,0,1-2.72-26.29c2.2-11.53,7.22-17.74,11.56-21.45l21.15-15.4c-4.34,3.71-9.37,9.92-11.56,21.45A45.25,45.25,0,0,0,512.94,273.39Z"/></clipPath><clipPath id="clip-path-71" transform="translate(-232.05 -80.49)"><path class="cls-1" d="M492.86,257.07l-21.14,15.4c-1.08-2-1.11-4.69-.49-8L492.38,249C491.76,252.38,491.78,255.07,492.86,257.07Z"/></clipPath><clipPath id="clip-path-72" transform="translate(-232.05 -80.49)"><path class="cls-1" d="M502,261.85l-21.15,15.4a11.37,11.37,0,0,1-4.37-.79,8.09,8.09,0,0,1-4.76-4l21.14-15.4a8.11,8.11,0,0,0,4.77,4A11.37,11.37,0,0,0,502,261.85Z"/></clipPath><clipPath id="clip-path-73" transform="translate(-232.05 -80.49)"><path class="cls-1" d="M449.18,242.56l21.14-15.4a5.79,5.79,0,0,1,5.46-.75c4.52,1.59,5.38,6,4.54,10.52l-21.15,15.4c.85-4.57,0-8.93-4.53-10.52A5.78,5.78,0,0,0,449.18,242.56Z"/></clipPath><clipPath id="clip-path-74" transform="translate(-232.05 -80.49)"><path class="cls-1" d="M448.74,239l21.15-15.4a7.32,7.32,0,0,0-1.42,1.35l-21.15,15.4A7.32,7.32,0,0,1,448.74,239Z"/></clipPath><clipPath id="clip-path-75" transform="translate(-232.05 -80.49)"><path class="cls-1" d="M463.51,226.39l-21.15,15.4c.54-2.93.94-5.35,1.2-7.75l21.15-15.4C464.45,221,464.05,223.46,463.51,226.39Z"/></clipPath><clipPath id="clip-path-76" transform="translate(-232.05 -80.49)"><path class="cls-1" d="M458,210l-21.15,15.4a2.71,2.71,0,0,1-2.58.24l21.15-15.4A2.71,2.71,0,0,0,458,210Z"/></clipPath><clipPath id="clip-path-77" transform="translate(-232.05 -80.49)"><path class="cls-1" d="M433.05,219.57l21.15-15.4a2.88,2.88,0,0,0-1.11,1.88,3.71,3.71,0,0,0,2.3,4.19l-21.15,15.4a3.71,3.71,0,0,1-2.3-4.19A2.88,2.88,0,0,1,433.05,219.57Z"/></clipPath><clipPath id="clip-path-78" transform="translate(-232.05 -80.49)"><path class="cls-1" d="M418.64,232.17l21.15-15.4a5.22,5.22,0,0,1,5-.65,8,8,0,0,1,1.6.74l-21.15,15.4a8,8,0,0,0-1.6-.74A5.22,5.22,0,0,0,418.64,232.17Z"/></clipPath><clipPath id="clip-path-79" transform="translate(-232.05 -80.49)"><path class="cls-1" d="M418.77,227.64l21.15-15.4a8.49,8.49,0,0,0-2.38,2.75l-21.15,15.4A8.49,8.49,0,0,1,418.77,227.64Z"/></clipPath><clipPath id="clip-path-80" transform="translate(-232.05 -80.49)"><path class="cls-1" d="M432.59,216.74l-21.15,15.4c.62-3.34,1.09-6.23,1.41-8.93L434,207.81C433.68,210.51,433.2,213.4,432.59,216.74Z"/></clipPath><clipPath id="clip-path-81" transform="translate(-232.05 -80.49)"><path class="cls-1" d="M421.39,209.56,400.25,225a7.45,7.45,0,0,0,2.7-4.86c1-5.22-2-8.94-7.21-10.78a20,20,0,0,0-4.53-1.16l21.14-15.4a20,20,0,0,1,4.54,1.16c5.22,1.84,8.17,5.56,7.21,10.78A7.41,7.41,0,0,1,421.39,209.56Z"/></clipPath><clipPath id="clip-path-82" transform="translate(-232.05 -80.49)"><path class="cls-1" d="M424.94,213.26l-21.15,15.4-.46.31c-3,2-7.37,2-12,.38a17.53,17.53,0,0,1-3.74-1.68l21.15-15.4a17.53,17.53,0,0,0,3.74,1.68c4.62,1.64,9,1.61,12-.38Z"/></clipPath></defs><g class="cls-2"><g class="cls-2"><g class="cls-3"><g class="cls-2"><path class="cls-4" d="M628.86,225.74l-21.15,15.4a2.81,2.81,0,0,1-2.68.27L626.18,226a2.81,2.81,0,0,0,2.68-.27" transform="translate(-232.05 -80.49)"/></g></g></g><g class="cls-2"><g class="cls-5"><g class="cls-2"><path class="cls-4" d="M626.18,226,605,241.41a4.14,4.14,0,0,1-2.53-4.76,3.47,3.47,0,0,1,1.28-2.24L624.93,219a3.41,3.41,0,0,0-1.28,2.24,4.14,4.14,0,0,0,2.53,4.76" transform="translate(-232.05 -80.49)"/></g></g></g><path class="cls-6" d="M626.18,226a4.14,4.14,0,0,1-2.53-4.76c.4-2.17,2-3.21,3.94-2.54a4.17,4.17,0,0,1,2.53,4.82C629.74,225.58,628.19,226.72,626.18,226Z" transform="translate(-232.05 -80.49)"/></g><g class="cls-2"><g class="cls-2"><g class="cls-7"><g class="cls-2"><path class="cls-4" d="M625,246.42l-21.15,15.39a2.81,2.81,0,0,1-2.68.28,4.14,4.14,0,0,1-2.53-4.76,3.46,3.46,0,0,1,1.29-2.25l21.14-15.4a3.49,3.49,0,0,0-1.28,2.25,4.14,4.14,0,0,0,2.53,4.76,2.84,2.84,0,0,0,2.68-.27" transform="translate(-232.05 -80.49)"/></g></g></g><path class="cls-6" d="M623.76,239.38a4.18,4.18,0,0,1,2.53,4.83c-.38,2-1.93,3.18-3.94,2.48a4.14,4.14,0,0,1-2.53-4.76C620.22,239.76,621.86,238.71,623.76,239.38Z" transform="translate(-232.05 -80.49)"/></g><g class="cls-2"><polygon class="cls-8" points="552.69 288.69 531.54 304.08 527.85 302.78 548.99 287.38 552.69 288.69"/><g class="cls-2"><g class="cls-9"><g class="cls-2"><path class="cls-10" d="M781,367.87l-21.14,15.4c4.93-4.44,9.33-11,11.28-21.54a46.23,46.23,0,0,0-2.44-26.2l21.15-15.4a46.31,46.31,0,0,1,2.44,26.2c-2,10.54-6.35,17.1-11.29,21.54" transform="translate(-232.05 -80.49)"/></g></g></g><path class="cls-11" d="M793.58,321.44a44.57,44.57,0,0,1,2.71,26.34c-2.13,11.49-7.15,17.64-11.55,21.4l-3.7-1.31c4.94-4.44,9.34-11,11.29-21.54a46.31,46.31,0,0,0-2.44-26.2Z" transform="translate(-232.05 -80.49)"/></g><g class="cls-2"><polygon class="cls-12" points="547.77 251.45 526.63 266.85 523.51 266.18 544.65 250.78 547.77 251.45"/><g class="cls-2"><g class="cls-13"><g class="cls-2"><path class="cls-10" d="M776.7,331.27l-21.14,15.4A77.88,77.88,0,0,0,761.31,334l21.15-15.39a78.16,78.16,0,0,1-5.76,12.62" transform="translate(-232.05 -80.49)"/></g></g></g><path class="cls-11" d="M782.46,318.65l5,1.19a63.45,63.45,0,0,1-7.63,12.1l-3.12-.67A78.16,78.16,0,0,0,782.46,318.65Z" transform="translate(-232.05 -80.49)"/><polygon class="cls-12" points="539.73 248.62 518.58 264.01 515.47 263.35 536.61 247.95 539.73 248.62"/><g class="cls-2"><g class="cls-14"><g class="cls-2"><path class="cls-10" d="M768.66,328.44l-21.14,15.4a85.77,85.77,0,0,0,5.75-12.63l21.15-15.4a84.75,84.75,0,0,1-5.76,12.63" transform="translate(-232.05 -80.49)"/></g></g></g><path class="cls-11" d="M774.42,315.81l5,1.19a64.46,64.46,0,0,1-7.63,12.1l-3.12-.66A84.75,84.75,0,0,0,774.42,315.81Z" transform="translate(-232.05 -80.49)"/></g><g class="cls-2"><g class="cls-2"><g class="cls-15"><g class="cls-2"><path class="cls-10" d="M755.45,344.9,734.3,360.3a11.44,11.44,0,0,0,4.05-7.34c.89-4.8-.21-11.68-5.86-13.67a6.29,6.29,0,0,0-6.1.72l21.14-15.4a6.31,6.31,0,0,1,6.11-.72c5.65,2,6.75,8.87,5.86,13.68-.63,3.37-2.11,5.91-4,7.33" transform="translate(-232.05 -80.49)"/></g></g></g><g class="cls-2"><g class="cls-16"><g class="cls-2"><path class="cls-10" d="M759.29,348.38l-21.15,15.4A11.53,11.53,0,0,1,727.39,365c-7.12-2.51-11.57-10.07-9.91-19,.81-4.38,2.69-7.49,5.2-9.32l21.15-15.4c-2.51,1.83-4.39,4.94-5.2,9.32-1.66,9,2.79,16.52,9.9,19a11.55,11.55,0,0,0,10.76-1.17" transform="translate(-232.05 -80.49)"/></g></g></g><path class="cls-11" d="M754.46,320.07c7.56,2.66,11.57,10.38,10,19-1.94,10.48-9.53,12.68-15.89,10.44-7.11-2.51-11.56-10.07-9.9-19C740.38,321,747.18,317.5,754.46,320.07Zm-5,25.69c4.57,1.61,8.85-1.81,10-8.19.89-4.81-.21-11.69-5.86-13.68s-9.15,2.77-10.15,8.16c-1.15,6.21,1.3,12.06,6,13.71" transform="translate(-232.05 -80.49)"/></g><g class="cls-2"><g class="cls-2"><g class="cls-17"><g class="cls-2"><path class="cls-10" d="M734.66,307.85l-21.15,15.4a21.79,21.79,0,0,0-7.78-4.56c-4.86-1.71-9.13-1.32-12.31,1l21.15-15.4c3.18-2.31,7.45-2.7,12.31-1a21.88,21.88,0,0,1,7.78,4.56" transform="translate(-232.05 -80.49)"/></g></g></g><polygon class="cls-8" points="497.02 243.79 475.87 259.19 468.42 256.57 489.57 241.17 497.02 243.79"/><polygon class="cls-18" points="489.57 241.17 468.42 256.57 469.18 252.47 490.32 237.07 489.57 241.17"/><polygon class="cls-18" points="494.84 255.56 473.69 270.96 475.87 259.19 497.02 243.79 494.84 255.56"/><g class="cls-2"><g class="cls-19"><g class="cls-2"><path class="cls-10" d="M730.93,340.79l-21.14,15.4a32.71,32.71,0,0,1-11.66-1.8c-5.54-1.95-9.83-5.09-12.74-10a24.46,24.46,0,0,1-2.38-16.5c1-5.32,3.43-9.45,6.9-12l21.15-15.4c-3.48,2.53-5.89,6.66-6.9,12a24.46,24.46,0,0,0,2.38,16.5c2.91,4.95,7.2,8.09,12.74,10a32.66,32.66,0,0,0,11.65,1.8" transform="translate(-232.05 -80.49)"/></g></g></g><path class="cls-11" d="M727.77,299.05a25.94,25.94,0,0,1,8.8,5l-1.91,3.76a21.88,21.88,0,0,0-7.78-4.56C718,300.15,711,304.07,709.2,314s2.65,17.9,11.19,20.91c3.09,1.09,5.3,1.37,6.5,1.16l2.18-11.77-7.45-2.62.75-4.1,12.08,4.25-3.52,19a32.66,32.66,0,0,1-11.65-1.8c-5.54-1.95-9.83-5.09-12.74-10a24.46,24.46,0,0,1-2.38-16.5C706.39,300.7,715.49,294.73,727.77,299.05Z" transform="translate(-232.05 -80.49)"/></g><g class="cls-2"><polygon class="cls-8" points="450.94 245.27 429.79 260.67 425 258.99 446.15 243.59 450.94 245.27"/><polygon class="cls-18" points="446.15 243.59 425 258.99 432.71 217.4 453.85 202 446.15 243.59"/><polygon class="cls-11" points="458.64 203.69 450.94 245.27 446.15 243.59 453.85 202 458.64 203.69"/></g><g class="cls-2"><polygon class="cls-18" points="437.05 221.16 415.9 236.56 416.01 235.98 437.16 220.58 437.05 221.16"/><polygon class="cls-20" points="425.15 211.6 404 227 403.55 223.22 424.69 207.82 425.15 211.6"/><g class="cls-2"><g class="cls-21"><g class="cls-2"><path class="cls-10" d="M669.21,301.07l-21.15,15.4c.44-2.35.62-6.78-4.76-8.67a12.17,12.17,0,0,0-7.25-.31l21.15-15.4a12.13,12.13,0,0,1,7.24.31c5.38,1.89,5.2,6.32,4.77,8.67" transform="translate(-232.05 -80.49)"/></g></g></g><polygon class="cls-18" points="435.58 229.69 414.44 245.09 415.35 240.17 436.49 224.77 435.58 229.69"/><g class="cls-2"><g class="cls-22"><g class="cls-2"><path class="cls-10" d="M665.4,313.6,644.25,329a5.9,5.9,0,0,0,1.66-1.87,5.08,5.08,0,0,0,.57-1.55l21.15-15.4a5.35,5.35,0,0,1-.57,1.55,6.15,6.15,0,0,1-1.66,1.87" transform="translate(-232.05 -80.49)"/></g></g></g><polygon class="cls-8" points="434.81 235.78 413.66 251.18 413.5 251.13 434.64 235.72 434.81 235.78"/><g class="cls-2"><g class="cls-23"><g class="cls-2"><path class="cls-10" d="M668.54,305.26l-21.14,15.4-.75-.27c-3.62-1.28-7.54-2-9.8-.37L658,304.62c2.26-1.65,6.18-.91,9.8.37l.74.27" transform="translate(-232.05 -80.49)"/></g></g></g><polygon class="cls-8" points="438.87 241.02 417.73 256.42 413.37 254.89 434.52 239.49 438.87 241.02"/><polygon class="cls-18" points="434.52 239.49 413.37 254.89 413.66 251.18 434.81 235.78 434.52 239.49"/><g class="cls-2"><g class="cls-24"><g class="cls-2"><path class="cls-10" d="M666.11,316.69,645,332.09a8.8,8.8,0,0,1-8.24.91,9.72,9.72,0,0,1-6.54-11,7.91,7.91,0,0,1,3-5.21l21.14-15.4a8,8,0,0,0-3,5.21,9.72,9.72,0,0,0,6.54,11,8.82,8.82,0,0,0,8.25-.91" transform="translate(-232.05 -80.49)"/></g></g></g><path class="cls-11" d="M671.75,314.56a43.26,43.26,0,0,0-.83,6.95L666.57,320l.28-3.71-.16-.06a8.63,8.63,0,0,1-8.83,1.39,9.72,9.72,0,0,1-6.54-11c1.26-6.79,7.53-8.57,17.55-5l.23.08.11-.58c.43-2.35.61-6.78-4.77-8.67a12.13,12.13,0,0,0-7.24-.31l-.46-3.78a15,15,0,0,1,9.11.53c8,2.83,8.91,9.44,7.86,15.12Zm-4.12-4.38.91-4.92-.74-.27c-5-1.77-10.61-2.51-11.58,2.73a5.46,5.46,0,0,0,3.6,6.51,5.73,5.73,0,0,0,7.24-2.5,5.35,5.35,0,0,0,.57-1.55" transform="translate(-232.05 -80.49)"/></g><g class="cls-2"><polygon class="cls-18" points="408.3 200.05 387.15 215.45 388.41 208.65 409.55 193.25 408.3 200.05"/><polygon class="cls-8" points="419.1 208.03 397.95 223.43 391.1 221.02 412.25 205.62 419.1 208.03"/><polygon class="cls-8" points="407.57 203.97 386.42 219.37 382.35 217.93 403.5 202.53 407.57 203.97"/><polygon class="cls-18" points="403.5 202.53 382.35 217.93 383.08 214.01 404.22 198.61 403.5 202.53"/><polygon class="cls-18" points="404.71 219.43 383.56 234.83 386.42 219.37 407.57 203.97 404.71 219.43"/><g class="cls-2"><g class="cls-25"><g class="cls-2"><path class="cls-10" d="M637.24,308l-21.15,15.4c-1.08-2-1.1-4.69-.48-8l21.15-15.4c-.62,3.34-.6,6,.48,8" transform="translate(-232.05 -80.49)"/></g></g></g><g class="cls-2"><g class="cls-26"><g class="cls-2"><path class="cls-10" d="M646.37,312.73l-21.14,15.4a11.2,11.2,0,0,1-4.37-.79,8.11,8.11,0,0,1-4.77-4L637.24,308a8.09,8.09,0,0,0,4.76,4,11.23,11.23,0,0,0,4.37.79" transform="translate(-232.05 -80.49)"/></g></g></g><path class="cls-11" d="M646.53,274.05l-1.5,8.14,6.84,2.41-.72,3.92-6.85-2.41-2.83,15.29c-.65,3.51-.1,5.83,2.56,6.77a10.21,10.21,0,0,0,2.84.62l-.5,3.94a11.23,11.23,0,0,1-4.37-.79,8.09,8.09,0,0,1-4.76-4c-1.08-2-1.1-4.69-.48-8l2.86-15.46L635.55,283l.72-3.92,4.07,1.44,1.26-6.8Z" transform="translate(-232.05 -80.49)"/></g><g class="cls-2"><g class="cls-2"><g class="cls-27"><g class="cls-2"><path class="cls-10" d="M632.3,271.44l-21.14,15.4a2.74,2.74,0,0,1-2.59.24l21.14-15.4a2.73,2.73,0,0,0,2.59-.24" transform="translate(-232.05 -80.49)"/></g></g></g><g class="cls-2"><g class="cls-28"><g class="cls-2"><path class="cls-10" d="M629.71,271.68l-21.14,15.4a3.69,3.69,0,0,1-2.29-4.19,2.93,2.93,0,0,1,1.11-1.89l21.14-15.4a3,3,0,0,0-1.11,1.89,3.72,3.72,0,0,0,2.29,4.19" transform="translate(-232.05 -80.49)"/></g></g></g><path class="cls-11" d="M629.71,271.68a3.72,3.72,0,0,1-2.29-4.19,2.6,2.6,0,0,1,3.58-2.16,3.69,3.69,0,0,1,2.35,4.25A2.55,2.55,0,0,1,629.71,271.68Z" transform="translate(-232.05 -80.49)"/></g><g class="cls-2"><polygon class="cls-29" points="372.43 166.76 351.28 182.16 347.57 180.85 368.72 165.45 372.43 166.76"/><g class="cls-2"><g class="cls-30"><g class="cls-2"><path class="cls-4" d="M600.77,245.94l-21.15,15.4c4.94-4.43,9.34-11,11.29-21.53a46,46,0,0,0-2.45-26.2l21.15-15.4a46.13,46.13,0,0,1,2.45,26.2c-1.95,10.54-6.35,17.1-11.29,21.53" transform="translate(-232.05 -80.49)"/></g></g></g><path class="cls-6" d="M613.31,199.52A44.41,44.41,0,0,1,616,225.86c-2.13,11.48-7.14,17.64-11.54,21.39l-3.71-1.31c4.94-4.43,9.34-11,11.29-21.53a46.13,46.13,0,0,0-2.45-26.2Z" transform="translate(-232.05 -80.49)"/></g><g class="cls-2"><polygon class="cls-29" points="366.55 164.69 345.4 180.09 341.65 178.76 362.8 163.37 366.55 164.69"/><g class="cls-2"><g class="cls-31"><g class="cls-2"><path class="cls-4" d="M594.85,243.85l-21.15,15.4A45.19,45.19,0,0,1,571,233c2.19-11.52,7.22-17.74,11.55-21.45l21.15-15.39c-4.34,3.7-9.37,9.92-11.56,21.44a45.18,45.18,0,0,0,2.72,26.28" transform="translate(-232.05 -80.49)"/></g></g></g><path class="cls-6" d="M607.44,197.45c-5,4.34-9.32,10.94-11.28,21.53a47,47,0,0,0,2.44,26.2l-3.75-1.33a45.18,45.18,0,0,1-2.72-26.28c2.19-11.52,7.22-17.74,11.56-21.44Z" transform="translate(-232.05 -80.49)"/></g><g class="cls-2"><g class="cls-2"><g class="cls-32"><g class="cls-2"><path class="cls-4" d="M585.62,208l-21.15,15.4a12,12,0,0,0-5.08-3.54,4.11,4.11,0,0,0-3.88.24l21.14-15.4a4.13,4.13,0,0,1,3.89-.24,12.11,12.11,0,0,1,5.08,3.54" transform="translate(-232.05 -80.49)"/></g></g></g><g class="cls-2"><g class="cls-33"><g class="cls-2"><path class="cls-4" d="M578.83,225.46l-21.14,15.4A3.53,3.53,0,0,0,559,238.6c.46-2.46-.66-4.29-3.93-6.94-4.4-3.48-6.1-7.07-5.47-10.47a7,7,0,0,1,2.69-4.52l21.15-15.4a7,7,0,0,0-2.7,4.52c-.63,3.4,1.08,7,5.48,10.47,3.27,2.65,4.38,4.48,3.93,6.94a3.5,3.5,0,0,1-1.32,2.26" transform="translate(-232.05 -80.49)"/></g></g></g><polygon class="cls-34" points="334.36 144.36 313.21 159.76 315.13 156.25 336.28 140.85 334.36 144.36"/><g class="cls-2"><g class="cls-35"><g class="cls-2"><path class="cls-4" d="M582.17,229,561,244.36c-2,1.47-5,1.74-8.73.43a17.46,17.46,0,0,1-7-4.54l21.15-15.4a17.49,17.49,0,0,0,7,4.54c3.71,1.31,6.71,1,8.73-.43" transform="translate(-232.05 -80.49)"/></g></g></g><path class="cls-6" d="M581.37,200.67a15.27,15.27,0,0,1,6.14,4L585.62,208a12.11,12.11,0,0,0-5.08-3.54c-2.82-1-4.73.2-5.12,2.31-.43,2.35,1,3.95,4.11,6.57,4.22,3.48,6.1,6.77,5.32,11-.92,5-5.15,7.23-11.41,5a17.49,17.49,0,0,1-7-4.54l1.92-3.51a14.83,14.83,0,0,0,5.92,4.28c3.48,1.22,5.46-.07,5.9-2.42s-.66-4.29-3.93-6.94c-4.4-3.48-6.11-7.07-5.48-10.47C571.59,201.22,575.71,198.68,581.37,200.67Z" transform="translate(-232.05 -80.49)"/></g><g class="cls-2"><g class="cls-2"><g class="cls-36"><g class="cls-2"><path class="cls-4" d="M564.09,200.45l-21.15,15.4a12,12,0,0,0-5.07-3.54,4.13,4.13,0,0,0-3.89.25l21.15-15.4a4.11,4.11,0,0,1,3.88-.25,12,12,0,0,1,5.08,3.54" transform="translate(-232.05 -80.49)"/></g></g></g><g class="cls-2"><g class="cls-37"><g class="cls-2"><path class="cls-4" d="M557.31,217.87l-21.15,15.4a3.48,3.48,0,0,0,1.32-2.25c.45-2.46-.66-4.29-3.94-6.94-4.39-3.48-6.1-7.08-5.47-10.48a7,7,0,0,1,2.7-4.51l21.14-15.4a7,7,0,0,0-2.69,4.51c-.63,3.4,1.08,7,5.47,10.48,3.28,2.65,4.39,4.48,3.93,6.94a3.43,3.43,0,0,1-1.31,2.25" transform="translate(-232.05 -80.49)"/></g></g></g><polygon class="cls-34" points="312.83 136.77 291.68 152.17 293.61 148.67 314.76 133.27 312.83 136.77"/><g class="cls-2"><g class="cls-38"><g class="cls-2"><path class="cls-4" d="M560.65,221.37l-21.15,15.4c-2,1.48-5,1.74-8.74.43a17.39,17.39,0,0,1-7-4.54l21.15-15.4a17.28,17.28,0,0,0,7,4.54c3.71,1.31,6.72,1,8.74-.43" transform="translate(-232.05 -80.49)"/></g></g></g><path class="cls-6" d="M559.84,193.09a15.48,15.48,0,0,1,6.15,4l-1.9,3.33a12,12,0,0,0-5.08-3.54c-2.82-1-4.72.21-5.11,2.32-.44,2.34,1,4,4.11,6.56,4.21,3.48,6.1,6.77,5.32,11-.92,5-5.17,7.23-11.42,5a17.28,17.28,0,0,1-7-4.54l1.93-3.5a14.74,14.74,0,0,0,5.92,4.27c3.48,1.23,5.46-.07,5.89-2.41s-.65-4.29-3.93-6.94c-4.39-3.48-6.1-7.08-5.47-10.48C550.06,193.63,554.19,191.1,559.84,193.09Z" transform="translate(-232.05 -80.49)"/></g><g class="cls-2"><g class="cls-2"><g class="cls-39"><g class="cls-2"><path class="cls-4" d="M539.07,198.62,517.93,214c.65-3.26.3-8.82-5.09-10.72a5.73,5.73,0,0,0-5.54.71l21.15-15.4a5.71,5.71,0,0,1,5.53-.71c5.39,1.9,5.75,7.46,5.09,10.72" transform="translate(-232.05 -80.49)"/></g></g></g><polygon class="cls-29" points="310.8 123.39 289.65 138.79 271.16 132.28 292.31 116.88 310.8 123.39"/><g class="cls-2"><g class="cls-40"><g class="cls-2"><path class="cls-4" d="M539.25,215.47l-21.15,15.4a20.44,20.44,0,0,1-9.08-1.33c-8.1-2.86-11.87-10.3-10.28-18.85.81-4.37,2.74-7.83,5.47-9.81l21.15-15.4c-2.73,2-4.67,5.44-5.48,9.81-1.58,8.55,2.19,16,10.29,18.85a20.42,20.42,0,0,0,9.08,1.33" transform="translate(-232.05 -80.49)"/></g></g></g><path class="cls-6" d="M543.45,201.54a22.09,22.09,0,0,1-.6,2.34l-18.49-6.51c-1.18,7,2.42,11.33,7.2,13a16.39,16.39,0,0,0,7.55,1.11l.14,4a20.42,20.42,0,0,1-9.08-1.33c-8.1-2.86-11.87-10.3-10.29-18.85s7.51-13.64,15.17-10.94C543.64,187.38,544.42,196.32,543.45,201.54Zm-4.38-2.92c.66-3.26.3-8.82-5.09-10.72-4.83-1.7-7.84,2.35-8.88,5.79l14,4.93" transform="translate(-232.05 -80.49)"/></g><g class="cls-2"><g class="cls-2"><g class="cls-41"><g class="cls-2"><path class="cls-4" d="M509.72,188.9l-21.15,15.4c.85-4.57,0-8.93-4.54-10.52a5.78,5.78,0,0,0-5.46.75l21.15-15.4a5.78,5.78,0,0,1,5.46-.75c4.51,1.59,5.38,6,4.54,10.52" transform="translate(-232.05 -80.49)"/></g></g></g><g class="cls-2"><g class="cls-42"><g class="cls-2"><path class="cls-4" d="M497.86,176.92l-21.15,15.4a7.78,7.78,0,0,1,1.41-1.33l21.15-15.4a7.47,7.47,0,0,0-1.41,1.33" transform="translate(-232.05 -80.49)"/></g></g></g><g class="cls-2"><g class="cls-43"><g class="cls-2"><path class="cls-4" d="M492.91,178.36l-21.15,15.4c.54-2.94.93-5.36,1.21-7.76l21.14-15.4c-.27,2.4-.66,4.83-1.2,7.76" transform="translate(-232.05 -80.49)"/></g></g></g><polygon class="cls-44" points="274.64 124.75 253.5 140.15 256.52 123.81 277.67 108.41 274.64 124.75"/><polygon class="cls-29" points="279.42 126.43 258.27 141.83 253.5 140.15 274.64 124.75 279.42 126.43"/><polygon class="cls-44" points="257.03 118.54 235.88 133.94 239.71 113.27 260.86 97.87 257.03 118.54"/><polygon class="cls-29" points="261.81 120.22 240.66 135.62 235.88 133.94 257.03 118.54 261.81 120.22"/><path class="cls-6" d="M507.55,174.66c3.64,1.28,8.85,5.62,7.05,15.33l-3.13,16.93-4.78-1.69,3-16.33c.84-4.57,0-8.93-4.54-10.52a5.94,5.94,0,0,0-7.39,3,7.42,7.42,0,0,0-.78,2.28l-3.15,17L489.08,199l3.83-20.67c.54-2.93.93-5.36,1.2-7.76l4.23,1.5-.59,4.78.11,0C499.67,174.69,503.19,173.12,507.55,174.66Z" transform="translate(-232.05 -80.49)"/></g><g class="cls-2"><g class="cls-2"><g class="cls-45"><g class="cls-2"><path class="cls-4" d="M487.37,162l-21.15,15.4a2.73,2.73,0,0,1-2.59.24l21.15-15.4a2.74,2.74,0,0,0,2.59-.24" transform="translate(-232.05 -80.49)"/></g></g></g><g class="cls-2"><g class="cls-46"><g class="cls-2"><path class="cls-4" d="M484.78,162.2l-21.15,15.4a3.71,3.71,0,0,1-2.3-4.18,3,3,0,0,1,1.11-1.89l21.15-15.4a2.93,2.93,0,0,0-1.11,1.89,3.69,3.69,0,0,0,2.3,4.18" transform="translate(-232.05 -80.49)"/></g></g></g><path class="cls-6" d="M484.78,162.2a3.69,3.69,0,0,1-2.3-4.18,2.62,2.62,0,0,1,3.59-2.17,3.69,3.69,0,0,1,2.34,4.26A2.55,2.55,0,0,1,484.78,162.2Z" transform="translate(-232.05 -80.49)"/></g><g class="cls-2"><polygon class="cls-44" points="244.31 114.05 223.16 129.45 228.41 101.11 249.56 85.71 244.31 114.05"/><polygon class="cls-29" points="249.09 115.74 227.94 131.14 223.16 129.45 244.31 114.05 249.09 115.74"/><polygon class="cls-6" points="244.31 114.05 249.56 85.71 254.34 87.39 249.09 115.74 244.31 114.05"/></g><g class="cls-2"><g class="cls-2"><g class="cls-47"><g class="cls-2"><path class="cls-4" d="M472.44,168.15l-21.15,15.4a12,12,0,0,0-5.07-3.54,4.16,4.16,0,0,0-3.89.24l21.15-15.4a4.13,4.13,0,0,1,3.88-.24,12,12,0,0,1,5.08,3.54" transform="translate(-232.05 -80.49)"/></g></g></g><g class="cls-2"><g class="cls-48"><g class="cls-2"><path class="cls-4" d="M465.66,185.57,444.51,201a3.48,3.48,0,0,0,1.32-2.25c.45-2.46-.66-4.29-3.94-6.94-4.39-3.48-6.1-7.08-5.47-10.48a7,7,0,0,1,2.7-4.51l21.15-15.4a7,7,0,0,0-2.7,4.52c-.63,3.39,1.08,7,5.47,10.47,3.28,2.65,4.39,4.48,3.93,6.94a3.43,3.43,0,0,1-1.31,2.25" transform="translate(-232.05 -80.49)"/></g></g></g><polygon class="cls-34" points="221.18 104.47 200.03 119.87 201.96 116.37 223.11 100.97 221.18 104.47"/><g class="cls-2"><g class="cls-49"><g class="cls-2"><path class="cls-4" d="M469,189.08l-21.15,15.4c-2,1.47-5,1.73-8.73.42a17.39,17.39,0,0,1-7-4.54L453.23,185a17.26,17.26,0,0,0,7,4.54c3.71,1.31,6.71,1.05,8.73-.42" transform="translate(-232.05 -80.49)"/></g></g></g><path class="cls-6" d="M468.19,160.79a15.48,15.48,0,0,1,6.15,4l-1.9,3.33a12,12,0,0,0-5.08-3.54c-2.83-1-4.72.21-5.11,2.32-.44,2.34.94,3.94,4.11,6.56,4.21,3.48,6.1,6.77,5.32,11-.92,5-5.17,7.23-11.41,5a17.26,17.26,0,0,1-7-4.54l1.93-3.5a14.74,14.74,0,0,0,5.92,4.27c3.48,1.23,5.46-.07,5.89-2.41s-.65-4.29-3.93-6.94c-4.39-3.48-6.1-7.08-5.47-10.47C458.42,161.33,462.54,158.8,468.19,160.79Z" transform="translate(-232.05 -80.49)"/></g><g class="cls-2"><g class="cls-2"><g class="cls-50"><g class="cls-2"><path class="cls-4" d="M450.91,160.56,429.77,176a12.19,12.19,0,0,0-5.08-3.53,4.11,4.11,0,0,0-3.88.24L442,157.27a4.11,4.11,0,0,1,3.88-.24,12.15,12.15,0,0,1,5.07,3.53" transform="translate(-232.05 -80.49)"/></g></g></g><g class="cls-2"><g class="cls-51"><g class="cls-2"><path class="cls-4" d="M444.13,178,423,193.39a3.45,3.45,0,0,0,1.31-2.26c.46-2.46-.65-4.29-3.92-6.94-4.4-3.48-6.1-7.08-5.47-10.47a7,7,0,0,1,2.69-4.52l21.15-15.4a7,7,0,0,0-2.7,4.52c-.63,3.39,1.08,7,5.48,10.47,3.27,2.65,4.38,4.48,3.92,6.94a3.53,3.53,0,0,1-1.31,2.26" transform="translate(-232.05 -80.49)"/></g></g></g><polygon class="cls-34" points="199.65 96.89 178.5 112.29 180.43 108.78 201.57 93.38 199.65 96.89"/><g class="cls-2"><g class="cls-52"><g class="cls-2"><path class="cls-4" d="M447.48,181.49l-21.15,15.4c-2,1.47-5,1.73-8.74.42a17.37,17.37,0,0,1-7-4.53l21.14-15.4a17.48,17.48,0,0,0,7,4.53c3.71,1.31,6.71,1.05,8.74-.42" transform="translate(-232.05 -80.49)"/></g></g></g><path class="cls-6" d="M446.66,153.2a15.3,15.3,0,0,1,6.14,4l-1.89,3.33a12.15,12.15,0,0,0-5.07-3.53c-2.83-1-4.73.2-5.12,2.31-.43,2.34.94,3.95,4.12,6.56,4.21,3.49,6.09,6.78,5.31,11-.92,5-5.16,7.23-11.41,5a17.48,17.48,0,0,1-7-4.53l1.92-3.51a15,15,0,0,0,5.93,4.28c3.48,1.22,5.46-.08,5.89-2.42s-.65-4.29-3.92-6.94c-4.4-3.48-6.11-7.08-5.48-10.47C436.89,153.74,441,151.21,446.66,153.2Z" transform="translate(-232.05 -80.49)"/></g><g class="cls-2"><polygon class="cls-44" points="190.56 83.44 169.41 98.84 172.64 81.45 193.78 66.05 190.56 83.44"/><g class="cls-2"><g class="cls-53"><g class="cls-2"><path class="cls-4" d="M421.69,166.43l-21.15,15.4a7.34,7.34,0,0,0,.92-2.5l21.15-15.4a7.55,7.55,0,0,1-.92,2.5" transform="translate(-232.05 -80.49)"/></g></g></g><polygon class="cls-29" points="189.88 89.95 168.73 105.35 168.63 105.31 189.77 89.91 189.88 89.95"/><g class="cls-2"><g class="cls-54"><g class="cls-2"><path class="cls-4" d="M420.09,168.1l-21.15,15.4a6.48,6.48,0,0,0,1.6-1.67l21.15-15.4a6.65,6.65,0,0,1-1.6,1.67" transform="translate(-232.05 -80.49)"/></g></g></g><polygon class="cls-44" points="189.29 94.67 168.15 110.06 168.73 105.35 189.88 89.95 189.29 94.67"/><polygon class="cls-29" points="193.53 96.16 172.39 111.56 168.15 110.06 189.29 94.67 193.53 96.16"/><polygon class="cls-44" points="173.32 76.5 152.17 91.9 155.24 75.32 176.39 59.92 173.32 76.5"/><g class="cls-2"><g class="cls-55"><g class="cls-2"><path class="cls-4" d="M420.49,171.59,399.35,187a8.69,8.69,0,0,1-8.35,1c-4.13-1.45-8.63-5.65-6.78-15.61L405.37,157c-1.85,10,2.64,14.16,6.78,15.61a8.68,8.68,0,0,0,8.34-1" transform="translate(-232.05 -80.49)"/></g></g></g><path class="cls-6" d="M430.62,148.23l-3.82,20.62c-.54,2.92-1,5.52-1.21,7.8l-4.25-1.49.59-4.72-.11,0a8.63,8.63,0,0,1-9.67,2.2c-4.14-1.45-8.63-5.65-6.78-15.61l3.07-16.58,4.78,1.69-2.91,15.69c-1,5.39-.14,9.56,4.2,11.09a6,6,0,0,0,7.18-2.45,7.55,7.55,0,0,0,.92-2.5l3.22-17.39Z" transform="translate(-232.05 -80.49)"/></g><g class="cls-2"><g class="cls-2"><g class="cls-56"><g class="cls-2"><path class="cls-4" d="M394.4,138.54l-21.14,15.4a5.38,5.38,0,0,0,2.05-3.47c.86-4.62-2.07-7.59-6.85-9.28a20.62,20.62,0,0,0-4.25-1.13l21.15-15.4a21.29,21.29,0,0,1,4.24,1.13c4.79,1.69,7.72,4.66,6.86,9.28a5.35,5.35,0,0,1-2.06,3.47" transform="translate(-232.05 -80.49)"/></g></g></g><g class="cls-2"><g class="cls-57"><g class="cls-2"><path class="cls-4" d="M398.33,141.14l-21.14,15.4a8.62,8.62,0,0,1-4.8,1.57l21.14-15.4a8.59,8.59,0,0,0,4.8-1.57" transform="translate(-232.05 -80.49)"/></g></g></g><polygon class="cls-29" points="154.15 62.13 133 77.53 129.09 76.15 150.24 60.75 154.15 62.13"/><g class="cls-2"><g class="cls-58"><g class="cls-2"><path class="cls-4" d="M391.9,157.75l-21.15,15.4A6.33,6.33,0,0,0,373.1,169c1-5.39-2.89-9.13-8.05-10.95l21.15-15.4c5.16,1.82,9.05,5.56,8.05,10.95a6.33,6.33,0,0,1-2.35,4.18" transform="translate(-232.05 -80.49)"/></g></g></g><g class="cls-2"><g class="cls-59"><g class="cls-2"><path class="cls-4" d="M395.52,161.65l-21.15,15.4a9.33,9.33,0,0,1-.84.55l21.14-15.4c.29-.17.57-.35.85-.55" transform="translate(-232.05 -80.49)"/></g></g></g><polygon class="cls-44" points="142.02 77.89 120.88 93.28 128.07 54.45 149.22 39.05 142.02 77.89"/><g class="cls-2"><g class="cls-60"><g class="cls-2"><path class="cls-4" d="M394.67,162.2l-21.14,15.4c-3,1.62-7.37,1.34-13.35-.77a58.55,58.55,0,0,1-7.25-3.05l21.14-15.4a59.93,59.93,0,0,0,7.25,3.05c6,2.11,10.34,2.39,13.35.77" transform="translate(-232.05 -80.49)"/></g></g></g><path class="cls-6" d="M393.51,142.83c3.31,2.16,6.81,6.71,5.73,12.56a9.41,9.41,0,0,1-4.57,6.81c-3,1.62-7.37,1.34-13.35-.77a59.93,59.93,0,0,1-7.25-3.05l7.19-38.83a45.41,45.41,0,0,1,8.8,2.22c4.73,1.66,7.61,3.62,9.53,6.41a10.12,10.12,0,0,1,1.75,8,7.79,7.79,0,0,1-7.81,6.48Zm-10.09,15.09c4.89,1.73,9.76,1.39,10.83-4.35,1-5.39-2.89-9.13-8.05-10.95l-3.91-1.38-2.79,15a26.83,26.83,0,0,0,3.92,1.63m1.94-33.26L383,137.38l4.29,1.51c5,1.76,8.47,0,9.17-3.82.86-4.62-2.07-7.59-6.86-9.28a21.29,21.29,0,0,0-4.24-1.13" transform="translate(-232.05 -80.49)"/></g><g class="cls-2"><polygon class="cls-34" points="131.19 59.15 110.04 74.55 116.43 61.64 137.58 46.24 131.19 59.15"/><g class="cls-2"><g class="cls-61"><g class="cls-2"><path class="cls-4" d="M354.76,137.28l-21.15,15.4c-.33-3.49-.57-6.56-.61-10.13l21.14-15.4c0,3.57.28,6.64.62,10.13" transform="translate(-232.05 -80.49)"/></g></g></g><g class="cls-2"><g class="cls-62"><g class="cls-2"><path class="cls-4" d="M359.52,148.13l-21.14,15.4a85.29,85.29,0,0,1,3.71-8.49l21.15-15.4a83.21,83.21,0,0,0-3.72,8.49" transform="translate(-232.05 -80.49)"/></g></g></g><polygon class="cls-34" points="114.24 53.43 93.09 68.83 100.07 55.88 121.21 40.48 114.24 53.43"/><polygon class="cls-29" points="128.57 73.27 107.43 88.67 103.08 87.14 124.23 71.73 128.57 73.27"/><polygon class="cls-63" points="124.23 71.73 103.08 87.14 101.56 72.19 122.71 56.79 124.23 71.73"/><g class="cls-2"><g class="cls-64"><g class="cls-2"><path class="cls-4" d="M342.29,142.06l-21.14,15.4c1.12-2.66,2.56-5.4,4-8.14l21.15-15.4c-1.43,2.74-2.87,5.48-4,8.14" transform="translate(-232.05 -80.49)"/></g></g></g><polygon class="cls-29" points="111.13 67.12 89.98 82.52 85.63 80.98 106.78 65.58 111.13 67.12"/><polygon class="cls-63" points="106.78 65.58 85.63 80.98 82.94 49.84 104.09 34.44 106.78 65.58"/><path class="cls-6" d="M374.36,128.4l-13.74,25.36-4.34-1.54-1.52-14.94c-.34-3.49-.58-6.56-.62-10.13-1.39,3.12-2.74,5.76-4.23,8.48l-6.73,12-4.35-1.54-2.69-31.14,4.89,1.72.81,15.64c.18,3.43.34,6.61.29,9.71l.16.06c1.13-2.66,2.57-5.4,4-8.14l7-12.95,4,1.41L358.74,138c.34,3.74.55,7,.62,10.08l.16,0a83.21,83.21,0,0,1,3.72-8.49l6.39-12.91Z" transform="translate(-232.05 -80.49)"/></g><g class="cls-2"><g class="cls-2"><g class="cls-65"><g class="cls-2"><path class="cls-4" d="M321.92,133.72l-21.15,15.4c1.94-1.41,3.43-4,4.06-7.33.88-4.8-.22-11.68-5.88-13.68a6.28,6.28,0,0,0-6.09.72L314,113.43a6.27,6.27,0,0,1,6.09-.72c5.66,2,6.76,8.88,5.87,13.68-.62,3.37-2.11,5.92-4.05,7.33" transform="translate(-232.05 -80.49)"/></g></g></g><g class="cls-2"><g class="cls-66"><g class="cls-2"><path class="cls-4" d="M325.77,137.2l-21.15,15.39a11.55,11.55,0,0,1-10.76,1.18c-7.12-2.51-11.58-10.07-9.92-19,.81-4.38,2.7-7.49,5.21-9.32L310.29,110c-2.5,1.83-4.39,4.94-5.2,9.32-1.66,9,2.79,16.52,9.92,19a11.58,11.58,0,0,0,10.76-1.17" transform="translate(-232.05 -80.49)"/></g></g></g><path class="cls-6" d="M320.93,108.89c7.55,2.66,11.57,10.38,10,19-1.95,10.49-9.53,12.68-15.89,10.44-7.13-2.51-11.58-10.07-9.92-19C306.85,109.85,313.64,106.32,320.93,108.89Zm-5,25.69c4.56,1.61,8.85-1.81,10-8.19.89-4.8-.21-11.68-5.87-13.68S311,115.49,310,120.87c-1.15,6.21,1.3,12.06,6,13.71" transform="translate(-232.05 -80.49)"/></g><g class="cls-2"><g class="cls-2"><g class="cls-67"><g class="cls-2"><path class="cls-4" d="M304.61,108.5l-21.14,15.4a8,8,0,0,0-1.6-.75,5.24,5.24,0,0,0-5,.66L298,108.41a5.24,5.24,0,0,1,5-.66,7.61,7.61,0,0,1,1.59.75" transform="translate(-232.05 -80.49)"/></g></g></g><g class="cls-2"><g class="cls-68"><g class="cls-2"><path class="cls-4" d="M295.75,106.63,274.61,122a8.49,8.49,0,0,1,2.38-2.75l21.15-15.4a8.51,8.51,0,0,0-2.39,2.75" transform="translate(-232.05 -80.49)"/></g></g></g><g class="cls-2"><g class="cls-69"><g class="cls-2"><path class="cls-4" d="M290.79,108.38l-21.14,15.4c.61-3.34,1.1-6.24,1.42-8.93l21.15-15.4c-.32,2.69-.81,5.59-1.43,8.93" transform="translate(-232.05 -80.49)"/></g></g></g><polygon class="cls-44" points="55.13 47.38 33.98 62.78 37.6 43.29 58.74 27.89 55.13 47.38"/><polygon class="cls-29" points="59.86 49.05 38.72 64.45 33.98 62.78 55.13 47.38 59.86 49.05"/><path class="cls-6" d="M304.18,103a5.49,5.49,0,0,1,1.33.65l-.9,4.86a7.61,7.61,0,0,0-1.59-.75c-3.38-1.19-6.28.73-7.65,4.36a15.18,15.18,0,0,0-.66,2.32l-2.8,15.11-4.73-1.67,3.61-19.49c.62-3.34,1.11-6.24,1.43-8.93l4.18,1.47-.86,5.63.21.08C297.65,103.24,301,101.86,304.18,103Z" transform="translate(-232.05 -80.49)"/></g><g class="cls-2"><g class="cls-2"><g class="cls-70"><g class="cls-2"><path class="cls-4" d="M284.17,90.69,263,106.09a21.5,21.5,0,0,0-7.78-4.55c-4.86-1.72-9.13-1.33-12.31,1l21.15-15.4c3.17-2.31,7.44-2.7,12.31-1a21.59,21.59,0,0,1,7.78,4.55" transform="translate(-232.05 -80.49)"/></g></g></g><polygon class="cls-29" points="46.53 26.64 25.38 42.04 17.94 39.41 39.08 24.02 46.53 26.64"/><polygon class="cls-44" points="39.08 24.02 17.94 39.41 18.7 35.31 39.84 19.91 39.08 24.02"/><polygon class="cls-44" points="44.35 38.41 23.2 53.81 25.38 42.04 46.53 26.64 44.35 38.41"/><g class="cls-2"><g class="cls-71"><g class="cls-2"><path class="cls-4" d="M280.44,123.63,259.3,139a32.71,32.71,0,0,1-11.66-1.8c-5.54-1.95-9.83-5.08-12.73-10a24.4,24.4,0,0,1-2.39-16.5c1-5.31,3.42-9.44,6.9-12l21.15-15.4c-3.48,2.54-5.89,6.67-6.9,12a24.4,24.4,0,0,0,2.39,16.5c2.9,5,7.19,8.09,12.73,10a32.43,32.43,0,0,0,11.65,1.8" transform="translate(-232.05 -80.49)"/></g></g></g><path class="cls-6" d="M277.28,81.9a25.61,25.61,0,0,1,8.8,5l-1.91,3.75a21.59,21.59,0,0,0-7.78-4.55c-8.93-3.15-15.84.78-17.68,10.68s2.65,17.9,11.19,20.91c3.09,1.09,5.3,1.37,6.5,1.17l2.18-11.77-7.45-2.63.76-4.1L284,104.65l-3.52,19a32.43,32.43,0,0,1-11.65-1.8c-5.54-2-9.83-5.08-12.73-10a24.4,24.4,0,0,1-2.39-16.5C255.9,83.54,265,77.57,277.28,81.9Z" transform="translate(-232.05 -80.49)"/></g><g class="cls-2"><polygon class="cls-18" points="389.24 223.53 368.09 238.93 373.34 210.58 394.49 195.18 389.24 223.53"/><polygon class="cls-8" points="394.03 225.22 372.88 240.62 368.09 238.93 389.24 223.53 394.03 225.22"/><polygon class="cls-11" points="389.24 223.53 394.49 195.18 399.28 196.87 394.03 225.22 389.24 223.53"/></g><g class="cls-2"><polygon class="cls-18" points="381.9 195.3 360.76 210.7 361.77 206.5 382.91 191.1 381.9 195.3"/><g class="cls-2"><g class="cls-72"><g class="cls-2"><path class="cls-10" d="M612.13,282.51,591,297.91a7.92,7.92,0,0,0,.16-2.44,8.89,8.89,0,0,0-5.67-7.8,6.19,6.19,0,0,0-5.94.74L600.67,273a6.22,6.22,0,0,1,5.94-.74,8.9,8.9,0,0,1,5.68,7.8,8.24,8.24,0,0,1-.16,2.44" transform="translate(-232.05 -80.49)"/></g></g></g><polygon class="cls-18" points="379.14 207.11 357.99 222.51 358.93 217.42 380.08 202.02 379.14 207.11"/><g class="cls-2"><g class="cls-73"><g class="cls-2"><path class="cls-10" d="M608.39,292.41l-21.14,15.4a6.76,6.76,0,0,0,1.9-2.18A9.08,9.08,0,0,0,590,303l21.15-15.4a9.39,9.39,0,0,1-.89,2.63,6.79,6.79,0,0,1-1.91,2.18" transform="translate(-232.05 -80.49)"/></g></g></g><polygon class="cls-8" points="377.86 214.34 356.71 229.73 356.6 229.69 377.75 214.29 377.86 214.34"/><polygon class="cls-18" points="377.27 217.5 356.13 232.9 356.71 229.73 377.86 214.34 377.27 217.5"/><g class="cls-2"><g class="cls-74"><g class="cls-2"><path class="cls-10" d="M606,304.46l-21.14,15.4c1.56-1.14,2.73-3.22,3.34-6.47L609.32,298c-.6,3.25-1.77,5.33-3.34,6.47" transform="translate(-232.05 -80.49)"/></g></g></g><g class="cls-2"><g class="cls-75"><g class="cls-2"><path class="cls-10" d="M609.27,308.25l-21.15,15.4a8.27,8.27,0,0,1-1,.61l21.14-15.4a7.63,7.63,0,0,0,1-.61" transform="translate(-232.05 -80.49)"/></g></g></g><g class="cls-2"><g class="cls-76"><g class="cls-2"><path class="cls-10" d="M608.68,295.78l-21.15,15.4c-2,1.44-4.75,2-8.13.8-6.52-2.3-10.09-9.92-8.64-17.77.85-4.58,2.85-7.75,5.36-9.58l21.15-15.4c-2.51,1.83-4.51,5-5.36,9.58-1.45,7.85,2.11,15.47,8.64,17.77,3.38,1.19,6.16.64,8.13-.8" transform="translate(-232.05 -80.49)"/></g></g></g><g class="cls-2"><g class="cls-77"><g class="cls-2"><path class="cls-10" d="M608.29,308.86l-21.14,15.4c-3,1.67-6.89,1.19-10.2,0a19.64,19.64,0,0,1-8.32-5.43l21.15-15.4a19.57,19.57,0,0,0,8.32,5.43c3.31,1.17,7.16,1.66,10.19,0" transform="translate(-232.05 -80.49)"/></g></g></g><path class="cls-11" d="M615,271.59l4.19,1.48c-.48,2-1,4.25-1.66,7.71l-3,16.46c-1.2,6.5-3.13,10.06-6.15,11.62s-6.88,1.19-10.19,0a19.57,19.57,0,0,1-8.32-5.43l1.92-3.5A17.4,17.4,0,0,0,599,304.9c4.89,1.72,9,.24,10.31-6.91l.59-3.17-.11,0c-2,2.12-5.17,3.23-9.25,1.79-6.53-2.3-10.09-9.92-8.64-17.77,1.78-9.6,8.61-13,14.64-10.87a11.11,11.11,0,0,1,7.29,7.81l.12,0Zm-3.77,16,.94-5.09a8.24,8.24,0,0,0,.16-2.44,8.9,8.9,0,0,0-5.68-7.8c-4.57-1.61-8.59,1.4-9.8,8-1,5.57.71,11.11,5.88,12.93a6.13,6.13,0,0,0,7.61-2.93,9.39,9.39,0,0,0,.89-2.63" transform="translate(-232.05 -80.49)"/><polygon class="cls-12" points="357.73 222.96 336.58 238.36 338.5 234.86 359.65 219.46 357.73 222.96"/></g><g class="cls-2"><g class="cls-2"><g class="cls-78"><g class="cls-2"><path class="cls-10" d="M589.52,256.37l-21.15,15.4a2.74,2.74,0,0,1-2.58.23l21.15-15.4a2.74,2.74,0,0,0,2.58-.23" transform="translate(-232.05 -80.49)"/></g></g></g><g class="cls-2"><g class="cls-79"><g class="cls-2"><path class="cls-10" d="M586.94,256.6,565.79,272a3.7,3.7,0,0,1-2.3-4.19,2.9,2.9,0,0,1,1.11-1.88l21.15-15.4a2.9,2.9,0,0,0-1.11,1.88,3.69,3.69,0,0,0,2.3,4.19" transform="translate(-232.05 -80.49)"/></g></g></g><path class="cls-11" d="M586.94,256.6a3.69,3.69,0,0,1-2.3-4.19,2.61,2.61,0,0,1,3.58-2.16,3.67,3.67,0,0,1,2.34,4.25A2.54,2.54,0,0,1,586.94,256.6Z" transform="translate(-232.05 -80.49)"/></g><g class="cls-2"><polygon class="cls-18" points="346.46 208.45 325.31 223.85 330.56 195.51 351.71 180.11 346.46 208.45"/><polygon class="cls-8" points="351.25 210.14 330.1 225.54 325.31 223.85 346.46 208.45 351.25 210.14"/><polygon class="cls-11" points="346.46 208.45 351.71 180.11 356.5 181.79 351.25 210.14 346.46 208.45"/></g><g class="cls-2"><g class="cls-2"><g class="cls-80"><g class="cls-2"><path class="cls-10" d="M565.78,275.09l-21.15,15.4c2.79-2,4.69-5.57,5.6-10.5,1.79-9.29-2-16.93-12-20.45a26.56,26.56,0,0,0-5.65-1.43l21.15-15.4a26.36,26.36,0,0,1,5.64,1.43c10,3.52,13.8,11.16,12,20.45-.91,4.93-2.82,8.47-5.6,10.5" transform="translate(-232.05 -80.49)"/></g></g></g><polygon class="cls-18" points="310.44 195.63 289.29 211.03 296.49 172.2 317.63 156.8 310.44 195.63"/><g class="cls-2"><g class="cls-81"><g class="cls-2"><path class="cls-10" d="M569.32,278.94l-21.15,15.4c-.35.25-.71.49-1.07.71-4.11,2.48-10.13,2.47-17.25,0a82.15,82.15,0,0,1-8.51-3.5l21.15-15.4a80.34,80.34,0,0,0,8.51,3.5c7.12,2.51,13.14,2.51,17.24,0a12.55,12.55,0,0,0,1.08-.71" transform="translate(-232.05 -80.49)"/></g></g></g><path class="cls-11" d="M573.82,250.17c2.67,4.37,3.72,9.6,2.54,16s-4,11.06-8.12,13.49-10.12,2.48-17.24,0a80.34,80.34,0,0,1-8.51-3.5l7.19-38.83A68.43,68.43,0,0,1,559.89,240C566.68,242.41,571.21,245.81,573.82,250.17Zm-21.14,25.67c10.11,3.57,16.73-.59,18.7-11.25,1.78-9.29-2-16.93-12-20.45a26.36,26.36,0,0,0-5.64-1.43L548,273.87a32.75,32.75,0,0,0,4.73,2" transform="translate(-232.05 -80.49)"/></g><g class="cls-2"><polygon class="cls-12" points="304.84 165.83 283.69 181.23 280.58 180.57 301.73 165.17 304.84 165.83"/><g class="cls-2"><g class="cls-82"><g class="cls-2"><path class="cls-10" d="M533.78,245.66l-21.15,15.4a79.15,79.15,0,0,0,5.75-12.63L539.53,233a79.15,79.15,0,0,1-5.75,12.63" transform="translate(-232.05 -80.49)"/></g></g></g><path class="cls-11" d="M539.53,233l5,1.19a63.45,63.45,0,0,1-7.63,12.1l-3.11-.66A79.15,79.15,0,0,0,539.53,233Z" transform="translate(-232.05 -80.49)"/><polygon class="cls-12" points="296.8 163 275.65 178.4 272.53 177.73 293.68 162.33 296.8 163"/><g class="cls-2"><g class="cls-83"><g class="cls-2"><path class="cls-10" d="M525.73,242.82l-21.15,15.4a82.33,82.33,0,0,0,5.75-12.63l21.15-15.4a83.29,83.29,0,0,1-5.75,12.63" transform="translate(-232.05 -80.49)"/></g></g></g><path class="cls-11" d="M531.48,230.19l5,1.2a63.45,63.45,0,0,1-7.63,12.1l-3.12-.67A83.29,83.29,0,0,0,531.48,230.19Z" transform="translate(-232.05 -80.49)"/></g><g class="cls-2"><polygon class="cls-8" points="284.65 194.22 263.5 209.62 259.75 208.3 280.89 192.9 284.65 194.22"/><g class="cls-2"><g class="cls-84"><g class="cls-2"><path class="cls-10" d="M512.94,273.39l-21.14,15.4a45.32,45.32,0,0,1-2.72-26.29c2.2-11.53,7.22-17.74,11.56-21.45l21.15-15.4c-4.34,3.71-9.37,9.92-11.56,21.45a45.25,45.25,0,0,0,2.71,26.29" transform="translate(-232.05 -80.49)"/></g></g></g><path class="cls-11" d="M525.54,227c-5,4.34-9.32,10.94-11.29,21.55a47,47,0,0,0,2.45,26.19l-3.76-1.32a45.25,45.25,0,0,1-2.71-26.29c2.19-11.53,7.22-17.74,11.56-21.45Z" transform="translate(-232.05 -80.49)"/></g><g class="cls-2"><polygon class="cls-18" points="263.92 149.16 242.77 164.56 244.03 157.77 265.18 142.37 263.92 149.16"/><polygon class="cls-8" points="274.72 157.15 253.57 172.55 246.72 170.13 267.87 154.73 274.72 157.15"/><polygon class="cls-8" points="263.19 153.09 242.05 168.49 237.97 167.05 259.12 151.65 263.19 153.09"/><polygon class="cls-18" points="259.12 151.65 237.97 167.05 238.7 163.13 259.85 147.73 259.12 151.65"/><polygon class="cls-18" points="260.33 168.55 239.18 183.95 242.05 168.49 263.19 153.09 260.33 168.55"/><g class="cls-2"><g class="cls-85"><g class="cls-2"><path class="cls-10" d="M492.86,257.07l-21.14,15.4c-1.08-2-1.11-4.69-.49-8L492.38,249c-.62,3.34-.6,6,.48,8" transform="translate(-232.05 -80.49)"/></g></g></g><g class="cls-2"><g class="cls-86"><g class="cls-2"><path class="cls-10" d="M502,261.85l-21.15,15.4a11.37,11.37,0,0,1-4.37-.79,8.09,8.09,0,0,1-4.76-4l21.14-15.4a8.11,8.11,0,0,0,4.77,4,11.37,11.37,0,0,0,4.37.79" transform="translate(-232.05 -80.49)"/></g></g></g><path class="cls-11" d="M502.15,223.16l-1.51,8.14,6.86,2.42-.73,3.92-6.85-2.42-2.84,15.3c-.64,3.5-.08,5.83,2.58,6.77a10.52,10.52,0,0,0,2.84.62l-.5,3.94a11.37,11.37,0,0,1-4.37-.79,8.11,8.11,0,0,1-4.77-4c-1.08-2-1.1-4.69-.48-8l2.86-15.46-4.07-1.44.73-3.92,4.07,1.44,1.26-6.8Z" transform="translate(-232.05 -80.49)"/></g><g class="cls-2"><g class="cls-2"><g class="cls-87"><g class="cls-2"><path class="cls-10" d="M480.32,236.93l-21.15,15.4c.85-4.57,0-8.93-4.53-10.52a5.78,5.78,0,0,0-5.46.75l21.14-15.4a5.79,5.79,0,0,1,5.46-.75c4.52,1.59,5.38,6,4.54,10.52" transform="translate(-232.05 -80.49)"/></g></g></g><g class="cls-2"><g class="cls-88"><g class="cls-2"><path class="cls-10" d="M468.47,225l-21.15,15.4a7.32,7.32,0,0,1,1.42-1.35l21.15-15.4a7.32,7.32,0,0,0-1.42,1.35" transform="translate(-232.05 -80.49)"/></g></g></g><g class="cls-2"><g class="cls-89"><g class="cls-2"><path class="cls-10" d="M463.51,226.39l-21.15,15.4c.54-2.93.94-5.35,1.2-7.75l21.15-15.4c-.26,2.4-.66,4.82-1.2,7.75" transform="translate(-232.05 -80.49)"/></g></g></g><polygon class="cls-18" points="245.24 172.78 224.09 188.18 227.12 171.84 248.27 156.44 245.24 172.78"/><polygon class="cls-8" points="250.03 174.47 228.88 189.87 224.09 188.18 245.24 172.78 250.03 174.47"/><polygon class="cls-18" points="227.63 166.57 206.48 181.97 210.31 161.3 231.46 145.9 227.63 166.57"/><polygon class="cls-8" points="232.41 168.26 211.27 183.66 206.48 181.97 227.63 166.57 232.41 168.26"/><path class="cls-11" d="M478.16,222.69c3.63,1.28,8.85,5.62,7,15.34L482.08,255l-4.79-1.69,3-16.34c.84-4.57,0-8.93-4.54-10.52a6,6,0,0,0-7.39,3,7.52,7.52,0,0,0-.77,2.28l-3.16,17.05-4.78-1.69,3.83-20.67c.54-2.93.94-5.35,1.2-7.75l4.24,1.49-.59,4.79.11,0C470.27,222.72,473.8,221.15,478.16,222.69Z" transform="translate(-232.05 -80.49)"/></g><g class="cls-2"><g class="cls-2"><g class="cls-90"><g class="cls-2"><path class="cls-10" d="M458,210l-21.15,15.4a2.71,2.71,0,0,1-2.58.24l21.15-15.4A2.71,2.71,0,0,0,458,210" transform="translate(-232.05 -80.49)"/></g></g></g><g class="cls-2"><g class="cls-91"><g class="cls-2"><path class="cls-10" d="M455.39,210.24l-21.15,15.4a3.71,3.71,0,0,1-2.3-4.19,2.88,2.88,0,0,1,1.11-1.88l21.15-15.4a2.88,2.88,0,0,0-1.11,1.88,3.71,3.71,0,0,0,2.3,4.19" transform="translate(-232.05 -80.49)"/></g></g></g><path class="cls-11" d="M455.39,210.24a3.71,3.71,0,0,1-2.3-4.19,2.61,2.61,0,0,1,3.58-2.16,3.67,3.67,0,0,1,2.34,4.25A2.54,2.54,0,0,1,455.39,210.24Z" transform="translate(-232.05 -80.49)"/></g><g class="cls-2"><polygon class="cls-18" points="214.91 162.09 193.77 177.49 199.02 149.14 220.16 133.74 214.91 162.09"/><polygon class="cls-8" points="219.7 163.78 198.55 179.18 193.77 177.49 214.91 162.09 219.7 163.78"/><polygon class="cls-11" points="214.91 162.09 220.16 133.74 224.95 135.43 219.7 163.78 214.91 162.09"/></g><g class="cls-2"><g class="cls-2"><g class="cls-92"><g class="cls-2"><path class="cls-10" d="M446.4,216.86l-21.15,15.4a8,8,0,0,0-1.6-.74,5.22,5.22,0,0,0-5,.65l21.15-15.4a5.22,5.22,0,0,1,5-.65,8,8,0,0,1,1.6.74" transform="translate(-232.05 -80.49)"/></g></g></g><g class="cls-2"><g class="cls-93"><g class="cls-2"><path class="cls-10" d="M437.54,215l-21.15,15.4a8.49,8.49,0,0,1,2.38-2.75l21.15-15.4a8.49,8.49,0,0,0-2.38,2.75" transform="translate(-232.05 -80.49)"/></g></g></g><g class="cls-2"><g class="cls-94"><g class="cls-2"><path class="cls-10" d="M432.59,216.74l-21.15,15.4c.62-3.34,1.09-6.23,1.41-8.93L434,207.81c-.32,2.7-.8,5.59-1.41,8.93" transform="translate(-232.05 -80.49)"/></g></g></g><polygon class="cls-18" points="196.92 155.75 175.78 171.15 179.39 151.65 200.54 136.25 196.92 155.75"/><polygon class="cls-8" points="201.65 157.41 180.5 172.81 175.78 171.15 196.92 155.75 201.65 157.41"/><path class="cls-11" d="M446,211.35a5.8,5.8,0,0,1,1.32.65l-.9,4.86a8,8,0,0,0-1.6-.74c-3.37-1.19-6.27.71-7.64,4.35a15.46,15.46,0,0,0-.67,2.32L433.7,237.9,429,236.24l3.62-19.5c.61-3.34,1.09-6.23,1.41-8.93l4.19,1.48-.87,5.62.22.08C439.44,211.6,442.77,210.22,446,211.35Z" transform="translate(-232.05 -80.49)"/></g><g class="cls-2"><g class="cls-2"><g class="cls-95"><g class="cls-2"><path class="cls-10" d="M421.39,209.56,400.25,225a7.45,7.45,0,0,0,2.7-4.86c1-5.22-2-8.94-7.21-10.78a20,20,0,0,0-4.53-1.16l21.14-15.4a20,20,0,0,1,4.54,1.16c5.22,1.84,8.17,5.56,7.21,10.78a7.41,7.41,0,0,1-2.71,4.86" transform="translate(-232.05 -80.49)"/></g></g></g><g class="cls-2"><g class="cls-96"><g class="cls-2"><path class="cls-10" d="M424.94,213.26l-21.15,15.4-.46.31c-3,2-7.37,2-12,.38a17.53,17.53,0,0,1-3.74-1.68l21.15-15.4a17.53,17.53,0,0,0,3.74,1.68c4.62,1.64,9,1.61,12-.38l.46-.31" transform="translate(-232.05 -80.49)"/></g></g></g><polygon class="cls-18" points="169.03 145.92 147.89 161.32 155.11 122.31 176.26 106.91 169.03 145.92"/><polygon class="cls-8" points="173.76 147.59 152.62 162.99 147.89 161.32 169.03 145.92 173.76 147.59"/><path class="cls-11" d="M427.19,196.75a12.81,12.81,0,0,1,1.68,9.38c-.66,3.57-2.16,6-4.39,7.44-3,2-7.38,2-12,.38a17.53,17.53,0,0,1-3.74-1.68l-2.93,15.81-4.73-1.67,7.23-39a55.23,55.23,0,0,1,9.21,2.44C422.2,191.49,425.41,193.87,427.19,196.75ZM413.35,209.9c5.71,2,9.74.24,10.75-5.2,1-5.22-2-8.94-7.21-10.78a20,20,0,0,0-4.54-1.16l-2.84,15.35a17.78,17.78,0,0,0,3.84,1.79" transform="translate(-232.05 -80.49)"/></g></svg>