<?xml version="1.0"?>
<svg xmlns="http://www.w3.org/2000/svg" viewBox="0 0 512 512" width="512" height="512"><g id="Out_line" data-name="Out line"><path d="M408.96973,104.9707A23.99968,23.99968,0,1,0,375.0293,71.02979L304,142.05908l-7.0293-7.02881a23.99968,23.99968,0,1,0-33.9414,33.93994l24,23.99952a23.9989,23.9989,0,0,0,33.9414.00048ZM304,184a7.94522,7.94522,0,0,1-5.65625-2.34326l-24.001-24.00049a7.99967,7.99967,0,1,1,11.31348-11.313L304,164.686l82.34375-82.34327a7.99967,7.99967,0,1,1,11.3125,11.314l-88,88.00049A7.94678,7.94678,0,0,1,304,184Z"/><path d="M160,184.00049a51.9304,51.9304,0,0,0-36.9707,15.293l-11.999,11.99951a23.99968,23.99968,0,1,0,33.94043,33.94092l11.99805-11.99854a4.28476,4.28476,0,1,1,6.06152,6.05762l-11.71582,11.71484A51.93808,51.93808,0,0,0,136,287.97949V296a23.99425,23.99425,0,0,0,10.75342,20,24,24,0,1,0,26.49316,0A23.99425,23.99425,0,0,0,184,296v-8.02051a4.199,4.199,0,0,1,1.25488-3.02978l11.71582-11.71582A52.26319,52.26319,0,0,0,160,184.00049ZM160,344a8,8,0,1,1,8-8A8.00917,8.00917,0,0,1,160,344Zm25.65625-82.07959-11.71582,11.71582A20.15089,20.15089,0,0,0,168,287.97949V296a8,8,0,0,1-16,0v-8.02051A36.04619,36.04619,0,0,1,162.627,262.32227l11.7168-11.71582a20.28462,20.28462,0,0,0-28.6875-28.686l-12,12.00049a7.99967,7.99967,0,1,1-11.3125-11.314l12-12a36.28377,36.28377,0,0,1,51.3125,51.31348Z"/><path d="M192,160H128A112.0046,112.0046,0,0,0,63.40723,363.50439,32.00567,32.00567,0,1,0,120,384c0-.09424,0-.18848-.001-.28271q3.99024.282,8.001.28271h64a112,112,0,0,0,0-224Zm67.88281,179.8833A95.37251,95.37251,0,0,1,192,368H128a96.88276,96.88276,0,0,1-16.61426-1.43066,8.00056,8.00056,0,0,0-8.707,11.08447A15.74282,15.74282,0,0,1,104,384a16,16,0,1,1-23.31836-14.21191,8.00058,8.00058,0,0,0,.27441-14.08887A96.00793,96.00793,0,0,1,128,176h64a96.00114,96.00114,0,0,1,67.88281,163.8833Z"/><path d="M56,416a24,24,0,1,0,24,24A24.02718,24.02718,0,0,0,56,416Zm0,32a8,8,0,1,1,8-8A8.00917,8.00917,0,0,1,56,448Z"/><circle cx="24" cy="472" r="8"/><path d="M456,232a32.1386,32.1386,0,0,0-10.22266-23.40918q.71778-.69215,1.41993-1.394A112.00151,112.00151,0,0,0,368,16H304A111.99636,111.99636,0,0,0,192,128a113.19976,113.19976,0,0,0,1.31641,17.21973l15.8125-2.43946A97.26259,97.26259,0,0,1,208,128a95.99726,95.99726,0,0,1,96-96h64a96.0018,96.0018,0,0,1,59.55566,171.2959,7.99994,7.99994,0,0,0,2.12891,13.75488A15.99718,15.99718,0,1,1,408,232a15.65774,15.65774,0,0,1,.38281-3.44531,7.99965,7.99965,0,0,0-10.30761-9.36231A95.872,95.872,0,0,1,368,224H312v16h56a112.28163,112.28163,0,0,0,24.44238-2.6792A32.00167,32.00167,0,0,0,456,232Z"/><path d="M456,264a24,24,0,1,0,24,24A24.02718,24.02718,0,0,0,456,264Zm0,32a8,8,0,1,1,8-8A8.00917,8.00917,0,0,1,456,296Z"/><circle cx="488" cy="320" r="8"/></g></svg>
